<?xml version="1.0" encoding="UTF-8" standalone="no"?>
<svg 
  version="1.1" 
  xmlns="http://www.w3.org/2000/svg" 
  xmlns:xlink="http://www.w3.org/1999/xlink" 
  xmlns:svg="http://www.w3.org/2000/svg"
  xmlns:rdf="http://www.w3.org/1999/02/22-rdf-syntax-ns#"
  xmlns:cc="http://creativecommons.org/ns#"
  xmlns:dc="http://purl.org/dc/elements/1.1/"
  viewBox="0 0 768 768"
  width="768"
  height="768"
>
<style>svg {background-color: white; }</style>"
<metadata id="metadata1">
Created by https://svgstud.io and licensed under CC-BY-SA 4.0 license. Please attribute https://svgstud.io
</metadata>
<metadata id="prompt">
RAG (Retrieval-Augmented Generation) pipeline solutions
</metadata>
<metadata id="version">
7
</metadata>
<metadata id="metadata2">
<rdf:RDF>
<cc:Work
    rdf:about="">
    <cc:license
    rdf:resource="http://creativecommons.org/licenses/by-sa/4.0/" />
    <dc:creator>
        <cc:Agent>
            <dc:title>https://svgstud.io</dc:title>
        </cc:Agent>
    </dc:creator>
</cc:Work>
<cc:License
    rdf:about="http://creativecommons.org/licenses/by-sa/4.0/">
    <cc:permits
    rdf:resource="http://creativecommons.org/ns#Reproduction" />
    <cc:permits
    rdf:resource="http://creativecommons.org/ns#Distribution" />
    <cc:requires
    rdf:resource="http://creativecommons.org/ns#Notice" />
    <cc:requires
    rdf:resource="http://creativecommons.org/ns#Attribution" />
    <cc:permits
    rdf:resource="http://creativecommons.org/ns#DerivativeWorks" />
    <cc:requires
    rdf:resource="http://creativecommons.org/ns#ShareAlike" />
</cc:License>
</rdf:RDF>
</metadata>
<metadata id="uid">
48f2ef6c3615cb2a72eff8af95f63524f7d5c181495ef7af6fe29850c91f737a
</metadata>
<path stroke="none" fill="black" fill-rule="evenodd" d="M246.50,740.84C182.15,740.76 128.15,740.51 126.50,740.28C124.85,740.05 119.45,738.96 114.50,737.87C109.55,736.78 101.45,734.54 96.50,732.89C91.55,731.23 83.77,727.85 79.22,725.37C74.67,722.89 67.41,718.20 63.10,714.95C58.79,711.70 52.64,706.22 49.45,702.77C46.25,699.32 41.30,692.90 38.44,688.50C35.58,684.10 32.01,678.04 30.49,675.02C28.98,672.01 26.87,667.06 25.82,664.02C24.76,660.99 23.18,655.58 22.30,652.00C20.90,646.34 20.64,633.32 20.26,551.50C20.02,499.80 20.14,451.56 20.51,444.29C21.20,431.08 21.20,431.08 26.85,429.53C29.96,428.67 36.05,426.84 40.40,425.46C44.74,424.08 51.72,421.57 55.90,419.89C60.08,418.20 68.81,415.74 75.30,414.41C81.79,413.09 89.25,412.00 91.87,412.00C94.49,412.00 99.08,412.72 102.07,413.59C105.06,414.47 107.91,415.57 108.40,416.04C108.92,416.54 108.29,417.35 106.90,417.96C105.58,418.53 96.85,421.30 87.50,424.11C78.15,426.92 68.03,429.81 65.00,430.54C61.98,431.28 54.14,433.37 47.58,435.19C41.02,437.01 35.49,439.00 35.29,439.62C35.06,440.32 35.85,440.56 37.44,440.26C38.83,439.99 41.11,440.06 42.52,440.42C43.93,440.77 44.84,441.44 44.55,441.91C44.26,442.38 40.31,444.24 35.76,446.04C31.22,447.85 26.94,449.75 26.25,450.28C25.56,450.81 25.00,452.72 25.00,454.52C25.00,456.38 25.60,458.01 26.39,458.32C27.15,458.61 31.99,457.34 37.14,455.50C42.29,453.66 54.38,449.58 64.00,446.44C73.62,443.29 84.65,439.48 88.50,437.97C92.35,436.45 101.22,433.36 108.21,431.11C115.20,428.85 122.55,427.00 124.55,427.00C127.37,427.00 128.31,426.54 128.72,424.96C129.01,423.84 130.43,422.32 131.88,421.58C133.32,420.85 147.55,416.08 163.50,410.98C179.45,405.89 193.29,401.32 194.25,400.83C195.21,400.33 196.00,399.51 196.00,399.00C196.00,398.49 194.09,396.20 191.75,393.92C189.41,391.63 184.57,388.35 181.00,386.63C175.48,383.97 173.37,383.50 167.00,383.51C162.45,383.52 158.52,384.08 157.01,384.93C154.52,386.33 154.52,386.33 158.01,387.59C159.93,388.28 162.71,388.88 164.19,388.92C165.67,388.97 167.16,389.45 167.50,390.00C167.84,390.55 167.45,391.00 166.63,391.00C165.81,391.00 159.54,393.20 152.70,395.88C145.85,398.57 137.39,401.49 133.88,402.36C130.37,403.24 126.49,403.69 125.25,403.36C124.01,403.03 123.00,402.40 123.00,401.96C123.00,401.52 126.15,399.71 130.00,397.93C133.85,396.16 137.00,394.26 137.00,393.72C137.00,393.13 135.31,393.01 132.75,393.41C130.41,393.78 121.19,395.86 112.26,398.04C103.33,400.22 95.23,401.98 94.26,401.96C93.29,401.93 95.13,400.83 98.33,399.49C101.54,398.16 107.95,395.92 112.56,394.51C117.87,392.89 121.33,391.26 121.96,390.08C122.61,388.86 122.69,379.05 122.18,361.85C121.75,347.36 121.67,335.17 121.99,334.76C122.31,334.36 126.54,334.67 131.39,335.46C136.25,336.24 140.38,337.05 140.58,337.25C140.78,337.45 141.25,347.57 141.63,359.75C142.00,371.92 142.68,382.47 143.13,383.19C143.72,384.15 145.08,383.26 148.22,379.85C151.19,376.63 153.81,374.85 156.77,374.06C161.04,372.91 161.04,372.91 160.77,353.71C160.50,334.50 160.50,334.50 154.41,334.78C151.07,334.93 139.37,333.67 128.41,331.99C117.46,330.31 106.92,328.44 105.00,327.83C103.08,327.23 101.05,326.39 100.50,325.97C99.95,325.54 97.70,324.74 95.50,324.19C93.30,323.64 89.33,322.88 86.68,322.52C83.99,322.15 81.00,321.00 79.93,319.93C78.20,318.20 78.00,316.48 78.00,302.97C78.00,290.77 78.27,287.83 79.45,287.38C80.25,287.08 87.78,287.82 96.20,289.04C110.39,291.10 113.24,291.20 135.50,290.38C148.70,289.90 165.60,289.50 173.05,289.50C184.49,289.50 187.03,289.78 189.38,291.33C190.92,292.34 191.98,293.35 191.75,293.59C191.51,293.82 181.01,294.94 168.41,296.08C151.75,297.58 142.15,297.97 133.23,297.49C120.96,296.84 120.96,296.84 117.48,300.32C114.08,303.72 114.00,304.00 114.00,311.83C114.00,316.25 114.45,321.05 115.00,322.50C115.55,323.94 116.45,324.84 117.00,324.50C117.56,324.16 118.00,319.54 118.00,314.06C118.00,307.04 118.38,303.93 119.35,303.13C120.35,302.30 123.42,302.30 131.11,303.14C141.52,304.28 141.52,304.28 141.17,314.89C140.97,321.22 141.28,326.67 141.95,328.41C142.83,330.70 143.34,331.06 144.29,330.11C145.03,329.37 145.69,324.46 146.00,317.48C146.37,309.13 146.90,305.69 148.00,304.66C148.82,303.88 152.09,302.96 155.25,302.61C161.00,301.98 161.00,301.98 161.00,307.34C161.00,310.29 161.29,316.16 161.65,320.40C162.25,327.48 162.47,328.08 164.40,327.80C166.41,327.51 166.49,327.02 166.20,316.50C166.04,310.45 166.29,304.94 166.76,304.25C167.30,303.47 172.58,302.60 181.06,301.90C188.45,301.28 199.90,299.99 206.50,299.01C213.10,298.04 218.84,297.44 219.25,297.68C219.66,297.92 220.00,299.85 220.00,301.98C220.00,304.10 220.27,306.55 220.61,307.42C221.01,308.47 222.46,309.00 224.91,309.00C226.94,309.00 229.14,309.54 229.80,310.20C230.46,310.86 230.99,313.00 230.98,314.95C230.98,316.90 230.63,319.03 230.21,319.69C229.80,320.34 228.24,321.34 226.74,321.91C225.25,322.48 220.08,323.61 215.26,324.42C210.44,325.23 199.07,327.26 190.00,328.94C180.93,330.62 172.08,332.23 170.35,332.52C168.61,332.81 166.92,333.75 166.60,334.61C166.27,335.46 166.00,344.24 166.00,354.11C166.00,367.63 166.31,372.15 167.25,372.40C167.94,372.59 171.12,373.23 174.31,373.83C177.51,374.43 183.40,376.49 187.39,378.42C191.94,380.60 197.34,384.39 201.79,388.51C205.72,392.15 210.97,398.19 213.47,401.95C215.97,405.72 218.64,409.03 219.41,409.33C220.18,409.62 221.76,409.61 222.93,409.31C224.56,408.88 224.90,408.25 224.41,406.63C224.06,405.46 221.13,400.11 217.91,394.75C214.69,389.39 212.34,385.00 212.69,385.00C213.04,385.00 215.31,386.17 217.74,387.59C222.16,390.18 222.16,390.18 234.33,386.01C241.02,383.72 247.85,381.23 249.50,380.49C251.15,379.74 256.10,377.71 260.50,375.99C265.08,374.19 271.76,372.49 276.12,372.00C280.96,371.47 285.61,370.22 288.84,368.58C291.64,367.16 294.79,366.00 295.84,366.00C296.90,366.00 298.31,366.67 298.99,367.49C299.67,368.31 300.63,368.73 301.11,368.43C301.60,368.13 302.00,366.77 302.00,365.42C302.00,363.91 300.35,361.16 297.75,358.33C295.41,355.79 291.99,353.07 290.16,352.30C287.20,351.06 285.23,351.14 273.16,353.02C265.64,354.19 256.97,355.79 253.88,356.57C250.79,357.35 245.67,359.55 242.50,361.46C239.34,363.36 234.52,365.66 231.81,366.56C227.55,367.98 225.97,368.03 220.32,366.97C216.65,366.27 210.41,365.96 206.13,366.25C198.50,366.77 198.50,366.77 203.76,364.31C206.65,362.96 214.53,360.53 221.26,358.90C227.99,357.27 234.68,355.47 236.13,354.90C238.76,353.86 238.76,353.86 238.35,301.68C238.12,272.98 237.69,247.11 237.39,244.20C236.95,239.94 236.41,238.73 234.67,238.09C233.48,237.64 226.88,236.51 220.00,235.58C213.12,234.64 206.08,233.43 204.36,232.89C202.44,232.30 200.98,231.05 200.62,229.71C200.29,228.49 200.02,218.70 200.01,207.94C200.00,192.94 200.32,187.95 201.37,186.51C202.64,184.77 203.26,184.72 209.62,185.84C213.40,186.50 221.00,187.48 226.50,188.00C232.00,188.52 237.62,188.96 239.00,188.97C241.50,189.00 241.50,189.00 241.50,206.25C241.50,215.74 241.86,225.19 242.30,227.25C242.77,229.50 243.67,231.00 244.55,231.00C245.76,231.00 246.02,228.01 246.10,212.75C246.15,202.71 246.52,193.38 246.91,192.00C247.58,189.63 247.97,189.51 254.06,189.72C257.60,189.84 265.37,190.22 271.32,190.57C280.82,191.12 282.06,191.40 281.50,192.85C281.14,193.76 280.42,196.83 279.89,199.68C279.27,203.02 279.28,209.81 279.93,218.92C280.47,226.66 281.43,233.94 282.05,235.10C282.68,236.26 283.56,236.83 284.02,236.36C284.49,235.89 285.01,226.18 285.18,214.80C285.39,201.10 285.88,193.71 286.63,192.96C287.43,192.17 291.41,192.04 300.13,192.54C312.50,193.24 312.50,193.24 312.50,215.57C312.50,231.57 312.84,238.23 313.70,239.09C314.61,240.01 316.28,240.03 320.70,239.20C323.89,238.59 329.43,237.58 333.00,236.96C336.57,236.33 340.29,235.12 341.25,234.26C342.81,232.86 343.00,230.40 343.00,211.22C343.00,193.05 343.21,189.93 344.38,190.90C345.43,191.77 345.94,196.87 346.47,211.78C346.93,224.59 346.82,232.43 346.15,234.15C345.49,235.85 343.93,237.18 341.81,237.84C339.99,238.41 332.42,240.06 325.00,241.51C311.49,244.15 311.49,244.15 291.25,242.07C280.11,240.93 269.82,240.00 268.37,240.00C265.73,240.00 265.73,240.00 266.35,265.75C266.69,279.91 267.09,303.18 267.23,317.46C267.50,343.43 267.50,343.43 259.50,346.77C255.10,348.60 250.82,350.81 250.00,351.66C248.66,353.05 248.71,353.16 250.50,352.66C251.60,352.35 255.20,351.43 258.50,350.60C261.80,349.76 267.88,348.57 272.00,347.93C276.12,347.30 280.62,346.20 282.00,345.50C283.38,344.79 291.70,342.09 300.50,339.49C309.30,336.89 320.45,333.74 325.27,332.48C330.10,331.23 335.16,329.47 336.52,328.58C337.89,327.68 339.00,326.72 339.00,326.43C339.00,326.14 337.35,325.21 335.34,324.37C333.12,323.44 328.62,322.84 323.87,322.84C319.44,322.84 313.56,323.58 310.28,324.55C306.68,325.61 301.48,326.20 296.50,326.12C292.10,326.04 285.83,325.55 282.57,325.02C279.31,324.48 276.28,323.47 275.84,322.77C275.39,322.07 275.02,317.55 275.02,312.72C275.00,305.99 275.34,303.81 276.44,303.39C277.23,303.08 280.49,303.39 283.69,304.07C286.89,304.75 293.10,305.18 297.50,305.02C301.90,304.86 308.16,304.75 311.42,304.76C316.34,304.79 317.62,305.17 319.01,307.01C320.50,308.99 321.23,309.16 325.84,308.52C328.68,308.13 331.00,307.43 331.00,306.96C331.00,306.50 330.02,305.43 328.83,304.59C326.87,303.22 326.83,303.00 328.38,302.41C329.32,302.05 335.43,302.25 341.96,302.87C348.48,303.49 356.98,304.00 360.84,304.00C364.71,304.00 369.14,303.52 370.68,302.93C372.23,302.33 377.09,301.69 381.47,301.48C386.38,301.25 388.88,301.45 388.00,302.00C387.21,302.49 386.77,303.09 387.03,303.32C387.29,303.56 389.98,304.47 393.00,305.34C396.02,306.21 400.61,308.26 403.19,309.90C405.84,311.58 410.18,315.95 413.16,319.93C416.33,324.17 418.79,326.61 419.34,326.06C419.84,325.56 419.93,323.46 419.55,321.39C419.01,318.55 417.21,316.02 412.17,311.05C407.30,306.25 404.02,303.94 400.00,302.49C394.50,300.50 394.50,300.50 398.38,300.18C401.55,299.92 403.63,300.71 409.88,304.54C414.35,307.29 420.08,312.03 423.76,316.03C430.01,322.83 430.01,322.83 434.26,321.30C436.59,320.45 441.96,318.42 446.19,316.79C452.06,314.53 453.96,313.32 454.19,311.72C454.41,310.23 456.70,308.50 461.98,305.81C466.10,303.71 470.15,302.01 470.98,302.03C471.82,302.05 473.37,302.72 474.44,303.53C475.51,304.34 476.71,305.00 477.12,305.00C477.53,305.00 478.51,304.35 479.31,303.55C480.11,302.75 482.82,300.95 485.33,299.55C487.83,298.15 490.47,297.04 491.19,297.08C491.91,297.13 491.22,297.73 489.66,298.42C488.10,299.11 486.42,300.31 485.93,301.09C485.43,301.86 485.02,302.80 485.02,303.17C485.01,303.54 491.64,303.80 499.75,303.76C511.85,303.70 516.21,304.10 524.00,305.97C529.23,307.23 535.75,309.14 538.50,310.21C541.25,311.28 548.75,315.27 555.17,319.06C561.58,322.86 569.01,327.83 571.67,330.10C574.33,332.38 578.44,336.55 580.82,339.37C583.19,342.19 586.19,346.56 587.49,349.07C588.79,351.59 590.61,356.54 591.53,360.07C592.81,364.95 593.05,368.55 592.55,375.00C592.19,379.68 591.26,386.54 590.49,390.26C589.73,393.99 587.70,399.66 585.99,402.88C584.27,406.09 580.42,411.67 577.43,415.27C574.45,418.87 572.00,422.31 572.00,422.91C572.00,423.51 572.41,424.00 572.92,424.00C573.43,424.00 576.31,421.74 579.32,418.99C582.34,416.23 586.27,411.70 588.05,408.92C589.84,406.13 592.42,400.85 593.79,397.18C595.84,391.65 596.36,388.14 596.76,376.74C597.08,367.97 596.82,360.74 596.04,356.79C595.37,353.38 593.11,347.20 591.02,343.05C588.37,337.79 585.29,333.66 580.86,329.43C577.36,326.09 570.99,321.00 566.70,318.12C562.42,315.24 554.54,310.71 549.20,308.06C543.87,305.41 535.67,302.02 531.00,300.54C524.14,298.36 519.71,297.71 508.00,297.17C493.50,296.50 493.50,296.50 502.00,292.74C506.68,290.67 511.59,288.42 512.92,287.74C514.25,287.06 515.52,285.97 515.73,285.31C515.95,284.66 515.08,283.18 513.81,282.02C512.54,280.85 510.60,279.08 509.50,278.06C508.40,277.05 505.95,275.44 504.07,274.49C501.43,273.16 499.10,272.88 494.07,273.28C490.45,273.57 482.69,275.42 476.82,277.40C470.94,279.38 465.32,280.99 464.32,280.97C462.56,280.94 462.56,280.90 464.31,279.89C465.31,279.31 470.01,277.52 474.76,275.91C479.51,274.31 484.55,271.90 485.95,270.56C487.35,269.22 489.77,267.65 491.32,267.06C492.86,266.48 495.60,266.00 497.40,266.00C499.20,266.00 503.78,267.55 507.58,269.45C511.39,271.35 515.90,274.17 517.61,275.70C519.33,277.24 521.97,280.19 523.48,282.25C525.00,284.31 526.63,286.00 527.12,286.00C527.60,286.00 528.00,285.15 528.00,284.11C528.00,283.07 526.37,279.81 524.37,276.86C522.37,273.91 521.34,272.06 522.07,272.75C522.80,273.44 524.59,274.00 526.05,274.00C527.51,274.00 535.59,271.54 544.03,268.52C552.46,265.51 559.74,262.66 560.21,262.19C560.68,261.72 560.80,260.63 560.47,259.77C560.08,258.76 557.97,257.98 554.43,257.54C551.45,257.16 549.00,256.52 549.00,256.10C549.00,255.69 550.01,254.43 551.25,253.30C552.60,252.07 555.44,251.04 558.33,250.74C560.98,250.46 563.95,250.44 564.92,250.69C566.16,251.01 566.56,251.85 566.25,253.47C566.01,254.74 564.87,256.20 563.71,256.72C561.77,257.58 561.90,257.79 565.56,259.58C567.73,260.63 570.40,262.95 571.50,264.71C572.60,266.48 574.06,267.94 574.75,267.96C575.44,267.98 576.06,267.55 576.12,267.00C576.19,266.45 576.31,265.45 576.38,264.78C576.44,264.11 578.75,262.73 581.50,261.72C584.25,260.70 586.95,259.42 587.50,258.87C588.17,258.20 587.86,257.39 586.57,256.44C584.89,255.20 584.42,255.22 582.94,256.55C582.01,257.39 579.64,258.35 577.68,258.66C575.71,258.98 572.96,258.96 571.55,258.60C570.15,258.25 569.00,257.32 569.00,256.53C569.00,255.68 570.43,254.82 572.51,254.43C574.44,254.07 577.38,253.98 579.05,254.22C581.68,254.61 582.05,254.38 581.80,252.59C581.62,251.37 580.06,249.82 578.00,248.83C574.50,247.14 574.50,247.14 584.42,246.82C591.06,246.61 594.47,246.10 594.74,245.29C594.96,244.62 593.96,243.78 592.51,243.41C590.81,242.99 588.72,243.37 586.60,244.51C583.87,245.99 581.57,246.20 572.63,245.80C566.74,245.54 561.46,244.86 560.89,244.29C560.29,243.69 560.15,241.74 560.54,239.63C561.22,236.00 561.22,236.00 566.86,236.01C569.96,236.01 575.42,236.49 579.00,237.06C582.58,237.64 586.50,238.76 587.71,239.56C589.04,240.42 592.42,241.00 596.14,241.00C599.94,241.00 602.95,240.47 603.92,239.64C604.79,238.88 607.18,238.01 609.23,237.70C611.28,237.39 613.21,237.53 613.51,238.02C613.81,238.51 612.13,239.38 609.78,239.96C607.43,240.53 604.41,241.34 603.07,241.75C601.73,242.16 600.83,242.95 601.07,243.50C601.31,244.05 602.85,244.46 604.50,244.41C606.15,244.36 609.73,243.23 612.46,241.91C615.19,240.58 618.23,239.06 619.21,238.51C620.87,237.60 621.00,235.30 621.00,207.20C621.00,189.45 620.60,176.11 620.03,175.05C619.48,174.04 617.38,172.94 615.28,172.57C613.20,172.20 610.01,171.43 608.19,170.85C605.66,170.05 604.96,169.32 605.19,167.72C605.39,166.40 606.59,165.31 608.50,164.76C610.15,164.27 616.90,164.15 623.50,164.48C631.70,164.89 635.94,165.52 636.89,166.46C637.65,167.22 638.02,168.51 637.71,169.32C637.40,170.13 634.86,171.55 632.07,172.48C627.00,174.16 627.00,174.16 627.00,178.58C627.00,181.39 627.46,183.04 628.25,183.12C628.94,183.18 630.35,183.14 631.39,183.03C632.91,182.87 633.16,183.28 632.65,185.16C632.31,186.45 632.02,187.84 632.01,188.25C632.01,188.66 631.10,189.00 630.00,189.00C628.06,189.00 628.00,189.67 628.00,211.00C628.00,232.02 628.09,233.00 629.92,233.00C630.97,233.00 632.55,232.73 633.42,232.39C634.41,232.01 635.00,230.58 635.00,228.52C635.00,226.72 635.68,224.68 636.52,223.98C637.75,222.96 639.29,223.03 644.60,224.34C650.66,225.84 651.62,225.84 657.01,224.34C662.66,222.77 662.98,222.78 667.17,224.86C671.50,227.00 671.50,227.00 674.21,225.00C675.70,223.90 677.63,223.00 678.49,223.00C679.36,223.00 680.33,222.29 680.67,221.43C681.07,220.37 682.01,220.04 683.52,220.42C684.88,220.76 686.26,220.40 687.00,219.50C687.67,218.69 687.96,217.34 687.64,216.51C687.32,215.68 686.26,214.99 685.28,214.98C683.77,214.97 683.72,214.82 685.00,214.00C685.83,213.47 687.29,213.02 688.25,213.02C689.21,213.01 690.00,213.63 690.00,214.39C690.00,215.16 690.67,216.05 691.50,216.36C692.32,216.68 693.67,216.68 694.50,216.36C695.32,216.05 696.00,214.92 696.00,213.86C696.00,212.80 696.74,211.65 697.65,211.31C698.55,210.96 700.55,211.15 702.09,211.73C704.39,212.60 705.17,212.46 706.50,211.00C707.79,209.58 707.85,209.08 706.81,208.59C706.09,208.25 706.54,208.17 707.82,208.41C709.09,208.65 711.43,208.40 713.02,207.84C714.92,207.18 716.49,207.18 717.66,207.83C719.04,208.60 719.94,208.28 721.67,206.41C722.90,205.09 724.39,204.00 724.98,204.00C725.58,204.00 726.34,204.73 726.69,205.63C727.03,206.53 726.79,208.10 726.16,209.12C725.52,210.14 725.00,211.41 725.00,211.94C725.00,212.47 726.69,213.21 728.75,213.59C730.81,213.96 733.33,214.69 734.34,215.21C735.35,215.73 735.97,216.36 735.73,216.60C735.49,216.84 732.10,215.96 728.20,214.63C724.29,213.31 720.85,212.48 720.55,212.78C720.25,213.09 720.00,213.66 720.00,214.06C720.00,214.46 721.01,215.04 722.25,215.35C723.49,215.66 727.31,217.96 730.73,220.46C734.16,222.96 737.43,225.00 737.98,225.00C738.54,225.00 739.05,224.21 739.12,223.25C739.18,222.29 739.16,220.91 739.06,220.19C738.96,219.40 739.65,219.65 740.82,220.82C741.88,221.88 743.36,222.95 744.09,223.20C744.97,223.49 745.38,225.09 745.27,227.79C745.18,230.06 744.65,232.79 744.08,233.85C743.26,235.39 743.38,235.74 744.68,235.63C745.69,235.55 746.62,236.63 747.13,238.48C747.58,240.12 747.68,243.27 747.35,245.48C746.97,248.03 745.61,250.70 743.64,252.79C741.04,255.54 740.77,256.24 742.01,257.03C742.83,257.55 744.40,258.03 745.50,258.10C746.60,258.17 745.06,258.64 742.08,259.13C739.10,259.63 736.05,260.54 735.30,261.17C734.55,261.79 734.11,262.80 734.33,263.40C734.55,264.01 734.33,265.27 733.85,266.21C733.22,267.45 733.48,268.19 734.82,268.90C735.83,269.45 738.88,269.99 741.58,270.11C744.29,270.23 747.06,270.53 747.75,270.77C748.44,271.02 749.00,271.87 749.00,272.67C749.00,273.88 747.48,274.01 739.67,273.44C733.28,272.97 729.65,273.12 728.17,273.91C726.98,274.55 726.00,275.45 726.00,275.90C726.00,276.36 730.96,277.33 737.03,278.05C743.23,278.79 748.52,279.92 749.11,280.64C749.70,281.34 749.89,282.37 749.55,282.93C749.14,283.58 743.89,283.72 734.70,283.32C722.55,282.80 720.30,282.94 719.19,284.27C718.22,285.44 718.19,286.00 719.08,286.55C719.73,286.95 725.71,287.71 732.38,288.23C739.05,288.75 745.51,289.37 746.75,289.61C748.20,289.89 749.00,290.76 749.00,292.07C749.00,294.06 748.61,294.09 731.75,293.55C720.93,293.20 713.94,293.37 713.00,294.00C711.67,294.89 711.67,295.11 713.00,295.98C713.83,296.53 715.80,296.98 717.39,296.98C718.98,296.99 725.73,297.91 732.39,299.01C739.05,300.12 745.45,301.24 746.61,301.50C748.41,301.90 748.82,302.96 749.40,308.64C749.84,312.85 749.70,315.70 749.05,316.35C748.33,317.07 747.16,316.75 745.25,315.30C743.15,313.71 742.56,312.49 742.75,310.14C742.92,308.04 742.44,306.79 741.25,306.19C740.29,305.70 734.33,304.74 728.00,304.06C721.67,303.37 713.80,302.96 710.50,303.15C705.99,303.41 704.50,303.87 704.50,305.00C704.50,305.87 705.56,306.61 707.00,306.75C708.38,306.89 711.93,307.50 714.89,308.10C718.66,308.87 719.86,309.47 718.89,310.09C718.13,310.57 713.60,310.98 708.83,310.98C704.06,310.99 699.45,311.27 698.58,311.61C697.71,311.94 697.00,312.78 697.00,313.48C697.00,314.23 698.91,314.99 701.75,315.36C704.36,315.70 714.38,316.93 724.00,318.10C733.62,319.27 743.30,320.35 745.50,320.50C749.50,320.78 749.50,320.78 749.50,483.64C749.50,635.35 749.38,646.97 747.75,653.30C746.79,657.03 744.65,663.28 742.99,667.18C741.33,671.07 737.13,678.59 733.65,683.88C730.17,689.17 724.53,696.57 721.12,700.32C717.70,704.07 712.73,709.07 710.07,711.43C707.42,713.80 702.37,717.77 698.87,720.27C695.37,722.77 689.12,726.62 685.00,728.83C680.88,731.04 673.90,734.01 669.50,735.43C665.10,736.86 657.73,738.73 653.13,739.59C645.87,740.96 634.28,741.12 565.43,740.83C502.28,740.57 485.84,740.24 484.81,739.21C483.75,738.15 483.79,737.74 485.01,736.97C485.83,736.45 490.00,736.02 494.28,736.02C498.56,736.01 503.53,735.39 505.33,734.64C507.12,733.89 509.35,732.12 510.27,730.71C511.95,728.15 511.94,728.13 508.49,727.00C506.59,726.37 504.80,725.49 504.53,725.04C504.25,724.60 504.91,723.11 506.00,721.73C507.64,719.65 507.74,719.03 506.61,718.09C505.87,717.48 498.56,714.47 490.38,711.41C482.20,708.35 467.40,703.22 457.50,700.01C447.60,696.81 434.77,692.82 429.00,691.15C423.23,689.48 402.30,684.08 382.50,679.15C362.70,674.22 343.00,669.42 338.71,668.48C330.93,666.78 330.93,666.78 326.90,669.45C324.68,670.91 323.01,672.53 323.19,673.05C323.36,673.56 331.82,676.87 342.00,680.40C352.18,683.93 365.36,688.61 371.30,690.79C377.24,692.98 382.30,694.97 382.56,695.22C382.81,695.47 381.66,697.55 380.01,699.83C378.35,702.11 377.00,704.38 377.00,704.86C377.00,705.35 381.16,707.06 386.25,708.66C394.86,711.37 395.53,711.77 396.00,714.53C396.45,717.13 397.13,717.65 401.50,718.73C404.24,719.41 406.63,720.40 406.81,720.92C406.98,721.45 409.46,722.65 412.31,723.60C415.17,724.54 419.18,726.36 421.23,727.65C423.27,728.94 428.76,731.75 433.41,733.90C438.07,736.05 443.37,738.17 445.19,738.59C448.50,739.38 448.50,739.38 445.50,740.07C443.85,740.45 437.55,740.81 431.50,740.87C425.45,740.93 416.76,740.55 412.19,740.03C406.73,739.40 393.16,735.81 372.69,729.57C355.53,724.34 335.08,718.45 327.24,716.47C319.40,714.50 311.31,713.02 309.25,713.19C306.73,713.40 305.41,714.04 305.20,715.16C304.96,716.43 306.57,717.36 312.04,719.08C315.98,720.32 319.82,721.97 320.59,722.73C321.36,723.50 326.85,725.82 332.81,727.89C338.76,729.96 344.05,731.92 344.58,732.24C345.10,732.56 348.30,733.33 351.68,733.94C355.06,734.56 360.12,735.74 362.91,736.57C365.71,737.40 368.00,738.46 368.00,738.92C368.00,739.39 366.99,740.04 365.75,740.37C364.51,740.70 310.85,740.91 246.50,740.84zM544.69,734.95C545.90,734.98 547.19,734.50 547.57,733.89C547.95,733.28 547.64,732.40 546.89,731.93C546.15,731.47 541.93,730.11 537.52,728.91C533.11,727.71 527.59,726.51 525.25,726.24C522.54,725.92 521.00,726.14 521.00,726.83C521.00,727.44 522.01,728.48 523.25,729.15C524.49,729.82 529.33,731.39 534.00,732.64C538.67,733.88 543.49,734.93 544.69,734.95zM159.89,725.29C165.69,725.11 168.67,724.41 173.69,722.06C177.21,720.41 182.68,717.03 185.86,714.53C189.03,712.04 192.65,708.62 193.90,706.92C195.15,705.23 196.39,704.06 196.66,704.33C196.93,704.60 196.41,706.25 195.50,708.00C194.59,709.75 194.15,711.48 194.52,711.84C194.89,712.20 197.18,710.32 199.60,707.65C202.02,704.99 205.76,699.14 207.92,694.65C210.08,690.17 212.12,685.26 212.44,683.75C212.80,682.10 212.61,681.00 211.97,681.00C211.39,681.00 208.61,684.61 205.81,689.02C203.00,693.43 200.49,696.83 200.24,696.57C199.98,696.32 200.75,692.87 201.96,688.92C203.50,683.82 203.83,681.43 203.07,680.67C202.40,680.00 201.69,679.96 201.18,680.55C200.73,681.07 198.37,686.00 195.93,691.49C192.92,698.29 190.20,702.76 187.42,705.49C185.18,707.70 181.06,711.18 178.27,713.24C175.49,715.30 172.37,717.28 171.35,717.64C170.33,718.00 172.02,715.87 175.10,712.90C178.18,709.93 182.14,705.37 183.89,702.76C185.65,700.15 188.19,695.08 189.54,691.49C190.89,687.90 192.67,680.81 193.50,675.73C194.32,670.65 194.99,660.12 195.00,652.32C195.00,641.06 194.37,634.49 191.96,620.43C190.29,610.70 189.08,602.27 189.27,601.70C189.46,601.13 190.61,603.00 191.84,605.84C193.06,608.69 195.59,616.97 197.45,624.26C199.31,631.54 201.37,641.21 202.03,645.75C202.69,650.29 203.69,654.00 204.25,654.00C204.93,654.00 205.08,649.17 204.71,639.75C204.27,628.89 203.42,622.52 201.15,613.00C199.51,606.12 196.95,597.12 195.46,593.00C193.97,588.88 190.73,581.45 188.25,576.50C185.78,571.55 181.31,563.73 178.31,559.11C175.32,554.50 170.48,547.73 167.56,544.08C164.65,540.42 158.04,533.46 152.88,528.61C147.73,523.75 139.23,516.94 134.00,513.46C128.78,509.98 121.35,505.72 117.50,504.00C113.65,502.27 107.35,500.00 103.50,498.95C99.65,497.90 92.22,496.56 87.00,495.97C81.78,495.39 75.25,495.18 72.50,495.52C69.75,495.86 65.06,496.81 62.08,497.64C59.10,498.47 54.37,500.62 51.58,502.41C48.78,504.20 44.37,508.02 41.78,510.90C39.18,513.79 35.75,518.48 34.14,521.32C32.53,524.17 29.95,529.88 28.40,534.00C25.66,541.30 25.59,542.02 25.62,561.00C25.64,572.23 26.18,583.26 26.90,587.00C27.58,590.58 30.64,601.15 33.68,610.50C36.73,619.85 41.15,632.23 43.50,638.00C45.86,643.77 50.38,653.67 53.56,660.00C56.73,666.33 61.53,674.51 64.21,678.19C66.90,681.86 71.69,687.28 74.86,690.21C78.04,693.15 83.53,697.75 87.07,700.43C90.60,703.11 96.70,706.79 100.60,708.61C104.51,710.44 111.26,712.92 115.60,714.13C120.86,715.59 126.18,716.32 131.50,716.28C137.25,716.25 141.14,715.61 145.32,714.02C148.53,712.80 154.38,709.63 158.32,706.98C162.27,704.33 165.68,702.35 165.90,702.57C166.12,702.78 165.02,704.80 163.47,707.04C161.92,709.29 159.31,712.24 157.69,713.61C156.06,714.98 152.98,716.99 150.83,718.09C148.69,719.18 143.57,720.61 139.47,721.26C135.36,721.92 132.00,722.77 132.00,723.16C132.00,723.56 133.91,724.13 136.25,724.45C138.59,724.76 143.20,725.13 146.50,725.27C149.80,725.41 155.83,725.42 159.89,725.29zM525.29,713.93C527.79,713.99 528.40,713.30 531.10,707.28C532.75,703.59 534.20,699.00 534.30,697.08C534.49,693.85 534.16,693.42 529.86,691.36C527.31,690.13 519.43,687.09 512.36,684.61C505.29,682.13 495.11,678.31 489.74,676.11C484.38,673.92 468.18,668.52 453.74,664.11C439.31,659.70 421.95,654.50 415.16,652.55C408.37,650.60 401.76,649.00 400.48,649.00C399.06,649.00 397.36,650.09 396.17,651.77C395.08,653.29 394.04,655.40 393.85,656.45C393.62,657.71 394.36,658.80 396.00,659.61C397.38,660.29 403.09,663.11 408.70,665.88C414.31,668.66 429.61,674.50 442.70,678.88C455.79,683.26 471.34,688.02 477.26,689.47C483.18,690.92 489.61,692.78 491.55,693.59C493.62,694.45 494.80,695.51 494.41,696.15C493.96,696.88 491.16,697.01 485.87,696.55C481.54,696.17 478.00,696.11 478.00,696.41C478.00,696.71 479.91,697.96 482.25,699.18C484.59,700.40 494.60,704.20 504.50,707.63C514.40,711.05 523.76,713.89 525.29,713.93zM136.50,705.74C129.61,706.00 126.68,705.68 124.00,704.39C122.08,703.47 116.00,700.51 110.50,697.81C105.00,695.11 96.76,690.27 92.18,687.06C87.61,683.84 84.41,681.03 85.07,680.81C85.80,680.57 84.52,678.26 81.84,674.95C79.40,671.95 75.48,666.66 73.12,663.19C70.77,659.72 66.25,651.62 63.07,645.19C59.90,638.76 55.44,627.88 53.17,621.00C50.89,614.12 47.65,602.67 45.95,595.54C44.26,588.41 42.62,578.96 42.31,574.54C42.00,570.12 42.27,562.45 42.91,557.50C43.55,552.55 44.55,547.03 45.12,545.24C45.69,543.45 45.97,541.42 45.74,540.74C45.50,540.06 44.16,541.76 42.76,544.52C41.35,547.28 39.64,551.55 38.96,554.02C38.27,556.48 37.43,566.38 37.08,576.00C36.46,593.50 36.46,593.50 35.03,587.50C34.14,583.81 33.60,576.31 33.61,568.00C33.61,558.00 34.08,552.94 35.40,548.50C36.38,545.20 38.78,539.44 40.74,535.71C42.78,531.81 46.26,527.16 48.90,524.82C51.43,522.56 55.98,519.55 59.00,518.13C63.26,516.12 66.44,515.45 73.11,515.17C78.86,514.93 83.83,515.35 88.11,516.44C91.62,517.33 97.20,519.34 100.50,520.91C103.80,522.47 109.15,525.56 112.38,527.79C115.61,530.01 121.30,534.54 125.01,537.86C128.71,541.19 134.22,547.19 137.23,551.20C140.25,555.22 144.97,561.88 147.73,566.00C150.49,570.12 154.80,577.59 157.30,582.59C159.81,587.59 163.46,596.27 165.41,601.88C167.36,607.48 169.86,615.99 170.96,620.79C172.06,625.58 173.42,632.42 173.97,636.00C174.53,639.58 174.98,647.23 174.98,653.00C174.97,658.77 174.33,666.48 173.56,670.12C172.79,673.76 170.73,679.57 168.98,683.03C167.24,686.49 163.61,691.65 160.92,694.50C158.22,697.34 153.65,700.96 150.76,702.54C146.29,704.99 144.16,705.46 136.50,705.74zM634.94,704.67C637.05,704.52 637.89,703.21 641.13,695.00C643.19,689.77 644.90,684.69 644.94,683.70C644.98,682.57 643.75,681.38 641.67,680.51C639.84,679.74 637.70,678.34 636.92,677.39C636.14,676.44 632.80,674.45 629.50,672.96C626.20,671.48 621.16,669.72 618.30,669.05C615.44,668.37 612.59,667.21 611.96,666.45C611.10,665.41 611.32,663.75 612.91,659.50C614.06,656.44 615.00,653.30 615.00,652.53C615.00,651.76 614.09,650.84 612.97,650.49C611.85,650.14 609.93,648.84 608.70,647.61C607.45,646.36 602.08,643.98 596.49,642.21C590.99,640.46 574.12,635.37 559.00,630.90C543.88,626.43 523.62,620.30 514.00,617.28C504.38,614.26 492.90,610.70 488.50,609.35C484.10,608.01 469.25,603.84 455.50,600.07C441.75,596.31 427.26,592.69 423.30,592.03C419.34,591.38 415.17,591.13 414.05,591.49C412.92,591.84 412.00,592.73 412.00,593.45C412.00,594.23 415.58,595.89 420.75,597.52C425.56,599.04 429.05,600.43 428.50,600.61C427.95,600.79 422.55,600.13 416.50,599.13C410.45,598.14 404.91,597.53 404.18,597.79C403.46,598.05 403.23,598.63 403.68,599.08C404.13,599.52 409.90,601.54 416.50,603.57C423.10,605.59 433.23,608.55 439.00,610.16C444.77,611.76 456.93,615.51 466.00,618.49C475.07,621.46 488.10,625.30 494.95,627.01C501.79,628.73 509.22,630.95 511.45,631.96C513.68,632.96 516.40,634.01 517.50,634.28C518.62,634.55 517.74,634.84 515.50,634.93C513.30,635.02 509.27,635.68 506.55,636.39C503.70,637.14 502.21,637.94 503.05,638.27C504.09,638.68 503.94,638.89 502.50,639.03C501.40,639.13 499.15,639.13 497.50,639.02C495.85,638.92 484.38,635.97 472.00,632.47C459.62,628.97 438.93,623.59 426.00,620.52C413.07,617.45 401.52,614.73 400.33,614.47C398.94,614.17 397.04,614.94 395.08,616.59C393.38,618.01 392.00,619.83 392.00,620.62C392.00,621.42 393.91,622.89 396.25,623.88C398.59,624.88 408.22,628.26 417.66,631.40C427.09,634.54 435.73,637.90 436.84,638.86C437.96,639.83 445.98,642.57 454.68,644.95C463.38,647.33 471.21,649.89 472.07,650.63C472.94,651.38 483.43,654.49 495.39,657.55C507.36,660.61 517.90,662.94 518.82,662.72C520.04,662.42 519.68,661.99 517.50,661.12C515.85,660.46 511.35,658.32 507.50,656.37C503.65,654.42 500.07,652.41 499.55,651.91C498.97,651.36 500.01,651.00 502.21,651.00C504.19,651.00 513.42,652.11 522.72,653.46C532.02,654.81 540.38,656.21 541.31,656.57C542.24,656.92 543.00,657.84 543.00,658.61C543.00,659.37 542.55,660.00 542.00,660.00C541.45,660.00 541.00,660.66 541.00,661.46C541.00,662.40 543.41,663.62 547.75,664.90C551.46,665.98 557.26,667.58 560.64,668.44C564.02,669.30 568.45,670.00 570.48,670.00C573.04,670.00 574.01,670.38 573.65,671.25C573.36,671.94 572.58,674.17 571.92,676.22C571.01,679.00 570.99,680.28 571.84,681.30C572.46,682.06 574.81,683.28 577.06,684.02C579.31,684.76 581.77,686.27 582.54,687.37C583.31,688.46 586.54,690.42 589.72,691.72C592.90,693.01 601.12,695.60 608.00,697.48C614.88,699.35 623.20,701.78 626.50,702.87C629.80,703.95 633.60,704.77 634.94,704.67zM225.44,679.00C226.23,679.00 229.57,677.09 232.88,674.75C236.18,672.41 242.62,667.76 247.19,664.40C251.76,661.05 258.65,656.59 262.50,654.48C268.99,650.94 269.32,650.85 267.08,653.33C265.75,654.79 264.89,656.23 265.18,656.52C265.47,656.80 269.06,654.44 273.15,651.27C277.24,648.10 284.35,641.56 288.95,636.74C293.54,631.91 297.02,627.69 296.68,627.35C296.34,627.00 294.58,627.84 292.78,629.21C290.97,630.58 288.00,632.48 286.16,633.43C284.32,634.37 282.63,634.96 282.40,634.73C282.17,634.50 282.75,632.23 283.69,629.69C284.63,627.15 285.13,624.80 284.80,624.47C284.47,624.14 279.54,627.39 273.85,631.70C268.16,636.01 255.96,644.44 246.75,650.44C230.88,660.77 230.00,661.50 230.00,664.52C230.00,666.40 228.78,669.50 227.02,672.10C225.38,674.52 224.03,677.06 224.02,677.75C224.01,678.44 224.65,679.00 225.44,679.00zM79.57,678.00C79.23,678.00 75.65,674.74 71.61,670.75C67.57,666.76 61.71,659.58 58.59,654.79C55.34,649.79 51.23,641.55 48.92,635.42C46.72,629.55 45.12,624.55 45.37,624.30C45.62,624.05 46.93,625.79 48.28,628.17C49.63,630.55 52.96,636.77 55.68,642.00C58.40,647.23 63.18,655.37 66.31,660.11C69.43,664.84 73.83,670.80 76.08,673.36C78.33,675.91 79.90,678.00 79.57,678.00zM724.21,676.92C725.16,676.96 726.39,676.15 726.94,675.11C727.50,674.06 728.24,670.77 728.60,667.78C729.23,662.35 729.23,662.35 723.29,660.18C718.36,658.39 717.35,657.63 717.42,655.76C717.49,653.78 716.33,653.10 708.00,650.30C702.77,648.54 693.84,645.71 688.15,644.02C682.46,642.32 670.43,638.27 661.42,635.00C652.41,631.74 642.27,628.35 638.87,627.47C633.78,626.15 632.49,626.10 631.48,627.18C630.80,627.91 629.30,631.40 628.13,634.94C626.96,638.49 626.00,641.75 626.00,642.19C626.00,642.63 628.03,643.94 630.51,645.11C633.54,646.53 635.22,648.04 635.64,649.69C635.98,651.04 637.21,652.51 638.38,652.95C639.54,653.40 654.00,657.61 670.50,662.31C687.00,667.02 705.45,672.21 711.50,673.86C717.55,675.50 723.27,676.88 724.21,676.92zM319.55,649.00C320.13,649.00 322.61,647.72 325.05,646.16C327.50,644.60 331.32,641.34 333.53,638.91C335.75,636.49 339.06,632.33 340.89,629.67C342.71,627.02 345.91,621.17 348.00,616.67C350.09,612.18 352.73,605.12 353.86,601.00C354.99,596.88 356.39,589.69 356.96,585.03C357.53,580.37 358.00,572.44 358.00,567.41C358.00,562.38 357.33,554.41 356.51,549.69C355.68,544.98 354.22,539.00 353.26,536.40C352.29,533.80 351.00,531.50 350.39,531.30C349.78,531.09 348.32,533.16 347.14,535.90C345.69,539.26 345.00,542.92 345.02,547.19C345.02,551.00 345.36,552.97 345.87,552.17C346.47,551.23 346.91,551.79 347.36,554.04C347.71,555.81 348.00,558.60 348.00,560.25C348.00,562.80 348.22,563.06 349.50,562.00C350.82,560.91 351.00,561.97 351.00,570.63C350.99,576.06 350.32,584.66 349.49,589.75C348.67,594.84 346.65,603.17 345.01,608.25C343.38,613.34 339.94,621.21 337.37,625.73C334.80,630.26 329.50,637.35 325.60,641.49C321.69,645.62 318.97,649.01 319.55,649.00zM391.92,648.68C392.70,648.58 393.51,647.96 393.73,647.30C393.98,646.56 391.51,645.30 387.28,644.02C383.51,642.87 379.23,641.84 377.77,641.72C376.31,641.60 375.09,641.95 375.06,642.50C375.03,643.05 378.49,644.71 382.75,646.18C387.01,647.66 391.14,648.78 391.92,648.68zM737.03,648.92C738.19,648.98 738.95,646.69 740.22,639.25C741.51,631.70 741.62,629.25 740.70,628.38C740.04,627.76 735.23,626.23 730.00,624.99C724.77,623.74 712.80,620.55 703.38,617.90C693.97,615.25 683.17,612.41 679.38,611.58C675.60,610.75 670.92,609.95 669.00,609.79C666.48,609.58 665.50,609.91 665.50,610.94C665.50,611.92 670.37,613.99 680.50,617.31C688.75,620.02 699.55,623.45 704.50,624.94C713.50,627.64 713.50,627.64 713.14,635.26C712.79,642.88 712.79,642.88 718.14,644.42C721.09,645.27 726.20,646.61 729.50,647.40C732.80,648.19 736.19,648.87 737.03,648.92zM609.95,610.70C613.27,610.51 613.51,610.21 616.65,602.50C618.44,598.10 619.93,593.97 619.95,593.33C619.98,592.68 618.80,590.73 617.34,588.99C615.87,587.25 612.61,584.84 610.09,583.64C605.86,581.62 605.51,581.18 605.68,577.97C605.78,576.06 606.01,573.43 606.18,572.12C606.49,569.80 605.66,569.53 571.70,560.73C537.60,551.88 536.80,551.73 531.70,552.95C526.90,554.09 524.89,553.88 505.50,550.13C493.95,547.90 482.93,545.82 481.00,545.52C479.07,545.21 477.00,545.30 476.40,545.73C475.79,546.15 474.80,547.46 474.18,548.63C473.56,549.80 471.81,551.00 470.28,551.29C468.75,551.59 465.08,551.38 462.12,550.84C459.16,550.30 455.78,550.10 454.62,550.41C453.45,550.71 450.02,553.30 447.00,556.15C441.50,561.33 441.50,561.33 453.50,563.92C464.13,566.20 465.54,566.75 465.81,568.69C466.03,570.23 467.29,571.26 470.06,572.19C472.23,572.91 474.05,573.95 474.10,574.50C474.16,575.05 472.29,576.22 469.95,577.10C467.61,577.98 465.09,579.52 464.35,580.54C463.61,581.55 463.00,582.90 463.00,583.53C463.00,584.16 465.69,585.42 468.98,586.34C472.28,587.25 476.10,588.00 477.48,588.00C479.39,588.00 480.40,587.12 481.74,584.25C483.17,581.22 484.12,580.44 486.71,580.19C488.47,580.02 494.55,581.03 500.21,582.43C505.87,583.84 516.80,586.79 524.50,589.00C532.20,591.21 542.33,594.10 547.00,595.42C551.67,596.74 561.21,599.41 568.19,601.35C575.16,603.28 584.84,605.56 589.69,606.40C594.53,607.24 600.30,608.59 602.50,609.41C604.70,610.24 608.05,610.82 609.95,610.70zM727.18,598.90C728.11,598.96 729.15,598.12 729.49,597.04C729.83,595.96 729.64,594.19 729.06,593.10C728.47,592.02 728.00,590.19 728.00,589.03C728.00,587.88 728.63,586.70 729.40,586.40C730.16,586.11 732.70,586.38 735.04,587.01C738.44,587.93 739.45,587.89 740.13,586.83C740.59,586.10 740.98,582.95 740.98,579.83C741.00,574.30 740.92,574.13 737.75,573.13C735.96,572.57 726.40,570.01 716.50,567.44C706.60,564.88 696.25,561.93 693.50,560.89C690.75,559.84 686.72,557.18 684.54,554.96C681.56,551.93 678.95,550.46 674.04,549.03C670.44,547.98 652.20,542.83 633.50,537.58C614.80,532.34 590.87,525.98 580.32,523.45C567.96,520.49 560.35,518.17 558.90,516.91C557.66,515.84 552.34,513.61 547.07,511.95C541.81,510.29 532.99,508.20 527.47,507.30C521.95,506.41 516.22,505.98 514.72,506.36C513.22,506.73 512.00,507.47 512.00,508.00C512.00,508.53 513.01,509.18 514.25,509.45C515.49,509.71 522.58,511.35 530.00,513.09C537.42,514.83 544.06,516.70 544.75,517.25C545.44,517.80 546.00,518.82 546.00,519.52C546.00,520.21 545.44,521.00 544.75,521.27C544.06,521.53 539.30,521.03 534.19,520.16C526.42,518.83 524.75,518.79 524.05,519.92C523.36,521.04 521.12,520.93 510.86,519.28C498.50,517.29 498.50,517.29 491.75,520.77C488.04,522.68 485.00,524.61 485.00,525.04C485.00,525.48 486.46,526.13 488.25,526.48C490.04,526.82 495.67,528.02 500.77,529.14C509.05,530.96 510.20,531.48 511.53,534.06C512.67,536.26 514.28,537.31 518.26,538.43C521.14,539.25 528.67,540.86 535.00,542.02C541.33,543.19 552.80,545.69 560.50,547.60C568.20,549.50 582.38,553.73 592.00,556.99C601.62,560.24 621.90,566.08 637.07,569.96C652.23,573.83 665.61,577.00 666.82,577.00C668.02,577.00 669.00,576.59 669.00,576.08C669.00,575.57 666.75,574.41 664.00,573.50C661.25,572.59 659.00,571.61 659.00,571.34C659.00,571.07 661.86,571.15 665.35,571.52C670.56,572.08 671.81,571.93 672.29,570.67C672.62,569.83 672.35,568.71 671.69,568.18C671.04,567.65 667.83,566.67 664.56,566.00C661.29,565.33 656.38,564.11 653.64,563.30C650.60,562.40 649.14,561.53 649.88,561.07C650.55,560.66 656.59,561.30 663.30,562.49C672.11,564.06 677.65,565.68 683.25,568.34C687.51,570.37 691.00,572.38 691.00,572.81C691.00,573.25 690.52,574.08 689.92,574.68C689.33,575.27 688.44,577.50 687.95,579.63C687.46,581.76 687.31,584.30 687.60,585.27C687.90,586.24 690.39,588.18 693.13,589.56C695.87,590.95 704.27,593.60 711.80,595.45C719.34,597.29 726.26,598.85 727.18,598.90zM244.03,595.00C244.59,595.00 247.76,593.63 251.07,591.97C254.37,590.30 262.80,585.16 269.79,580.56C276.78,575.95 284.66,570.54 287.30,568.53C289.95,566.53 292.36,564.22 292.68,563.40C292.99,562.58 292.99,561.65 292.67,561.34C292.36,561.02 289.04,562.44 285.30,564.48C281.56,566.53 271.52,572.84 263.00,578.49C254.47,584.15 246.49,589.75 245.25,590.93C244.01,592.11 243.00,593.51 243.00,594.04C243.00,594.57 243.46,595.00 244.03,595.00zM166.83,585.50C166.63,585.70 164.56,582.15 162.23,577.61C159.90,573.06 155.09,565.12 151.53,559.97C147.97,554.81 141.43,546.45 137.00,541.38C132.57,536.32 125.70,529.58 121.72,526.40C117.75,523.21 114.05,520.18 113.50,519.66C112.86,519.05 113.04,519.00 114.00,519.53C114.83,519.99 118.42,522.27 122.00,524.61C125.58,526.94 131.28,531.37 134.67,534.44C138.06,537.51 143.28,543.28 146.25,547.26C149.23,551.24 153.24,557.20 155.15,560.50C157.07,563.80 160.56,570.69 162.92,575.81C165.28,580.94 167.04,585.30 166.83,585.50zM200.32,585.98C200.97,585.98 202.11,585.58 202.85,585.11C203.59,584.64 204.03,583.42 203.84,582.39C203.64,581.36 202.81,580.41 201.99,580.26C201.17,580.12 199.89,580.40 199.14,580.88C198.29,581.42 198.04,582.54 198.46,583.88C198.83,585.04 199.67,585.99 200.32,585.98zM234.48,577.00C235.37,577.00 237.41,576.32 239.02,575.49C240.63,574.66 245.05,572.86 248.84,571.49C252.64,570.12 256.39,569.00 257.17,569.00C257.96,569.00 266.68,564.91 276.55,559.91C286.62,554.81 296.01,549.34 297.95,547.44C299.85,545.59 301.20,543.88 300.95,543.65C300.70,543.43 298.35,543.79 295.72,544.47C293.09,545.15 290.70,545.33 290.42,544.87C290.13,544.41 291.98,542.56 294.51,540.76C297.05,538.97 301.86,536.04 305.21,534.25C308.55,532.46 312.24,530.98 313.39,530.96C314.55,530.94 316.85,529.82 318.50,528.48C321.22,526.26 321.48,525.53 321.27,520.76C321.15,517.86 319.91,512.15 318.53,508.07C317.14,504.00 316.16,500.51 316.35,500.31C316.55,500.12 318.09,502.56 319.78,505.73C321.48,508.90 323.81,512.51 324.97,513.75C326.13,514.99 327.56,516.00 328.15,516.00C328.84,516.00 328.98,514.68 328.54,512.25C328.16,510.19 325.32,502.65 322.22,495.50C317.32,484.20 315.79,481.70 310.54,476.40C307.21,473.05 303.07,469.57 301.34,468.67C298.18,467.04 298.18,467.04 297.14,470.02C296.57,471.66 295.88,473.00 295.62,473.00C295.35,473.00 293.91,472.54 292.43,471.97C290.27,471.15 289.34,471.29 287.86,472.63C286.84,473.55 286.00,474.92 286.00,475.65C286.00,476.39 285.17,477.00 284.15,477.00C283.14,477.00 281.61,477.79 280.75,478.75C279.89,479.71 279.03,481.62 278.84,483.00C278.63,484.52 277.91,485.43 277.00,485.31C276.17,485.21 274.59,484.85 273.47,484.51C272.17,484.10 270.61,484.61 269.10,485.91C267.82,487.03 265.92,488.21 264.88,488.54C263.85,488.86 262.73,490.25 262.38,491.60C261.80,493.91 261.62,493.98 259.52,492.60C257.44,491.24 256.88,491.40 251.89,494.73C248.92,496.71 246.28,498.64 246.00,499.01C245.72,499.39 244.26,499.99 242.75,500.37C240.51,500.91 240.00,501.59 240.00,504.04C240.00,507.05 240.00,507.05 237.05,505.53C235.43,504.69 233.55,504.00 232.88,504.00C232.21,504.00 230.83,504.74 229.83,505.65C228.82,506.57 228.00,508.37 228.00,509.65C228.00,511.49 227.46,512.00 225.50,512.00C223.78,512.00 223.01,512.55 223.02,513.75C223.03,514.71 224.37,517.75 226.00,520.50C227.63,523.25 228.97,526.10 228.98,526.82C228.99,527.60 227.46,526.88 225.27,525.07C223.22,523.38 220.73,522.00 219.74,522.00C218.75,522.00 217.71,522.59 217.44,523.30C217.16,524.02 217.66,526.34 218.55,528.45C220.08,532.12 220.06,532.43 218.08,535.11C216.93,536.66 216.00,538.39 216.00,538.96C216.00,539.53 215.55,540.00 215.00,540.00C214.45,540.00 214.00,540.81 214.00,541.81C214.00,542.80 215.59,546.29 217.52,549.56C219.46,552.83 222.39,556.73 224.02,558.24C225.73,559.81 227.00,561.99 227.00,563.36C227.00,564.68 227.56,566.21 228.25,566.77C228.94,567.33 230.40,567.96 231.50,568.17C233.19,568.50 233.45,569.22 233.18,572.78C232.93,576.13 233.20,577.00 234.48,577.00zM196.69,576.00C197.48,576.00 199.00,575.53 200.07,574.96C201.13,574.40 202.00,572.98 202.00,571.81C202.00,570.65 200.36,566.76 198.36,563.19C196.36,559.61 192.03,552.82 188.74,548.09C185.45,543.37 181.13,537.48 179.13,535.01C177.13,532.55 172.57,527.41 169.00,523.60C165.43,519.80 157.86,512.70 152.19,507.85C146.52,502.99 139.99,497.92 137.69,496.59C135.39,495.26 129.22,492.36 124.00,490.15C118.78,487.94 110.70,485.37 106.06,484.44C100.29,483.28 94.91,482.90 89.02,483.23C82.92,483.58 78.97,484.40 75.45,486.04C70.50,488.35 70.50,488.35 80.50,489.17C86.00,489.62 94.42,490.88 99.22,491.97C104.01,493.06 111.51,495.33 115.87,497.01C120.24,498.69 127.79,502.57 132.65,505.62C137.52,508.67 145.55,514.46 150.50,518.49C155.45,522.52 160.59,527.09 161.92,528.65C163.25,530.22 166.44,533.82 169.01,536.65C171.57,539.48 176.83,546.46 180.70,552.15C184.57,557.84 188.97,564.98 190.49,568.00C192.00,571.02 193.69,574.06 194.24,574.75C194.79,575.44 195.89,576.00 196.69,576.00zM363.15,559.00C363.78,559.00 366.76,556.98 369.76,554.50C372.77,552.02 375.63,550.00 376.11,550.00C376.60,550.00 377.00,550.67 377.00,551.50C377.00,552.33 377.35,553.00 377.78,553.00C378.21,553.00 382.82,549.48 388.03,545.17C393.56,540.60 399.30,534.77 401.82,531.16C404.20,527.76 406.56,525.23 407.07,525.55C407.58,525.86 408.00,527.22 408.00,528.56C408.00,529.90 408.37,531.00 408.83,531.00C409.28,531.00 410.61,529.98 411.78,528.74C412.95,527.49 414.66,524.68 415.59,522.49C416.67,519.92 417.29,515.66 417.32,510.50C417.35,504.86 416.86,501.55 415.67,499.28C414.55,497.15 413.48,496.26 412.48,496.64C411.66,496.96 410.79,498.18 410.55,499.36C410.31,500.54 409.84,503.19 409.51,505.25C409.18,507.31 408.59,509.00 408.20,509.00C407.80,509.00 406.92,508.10 406.23,507.00C405.55,505.90 404.20,505.01 403.24,505.03C402.28,505.04 396.32,508.62 390.00,512.97C383.68,517.32 374.34,523.48 369.25,526.65C364.16,529.83 359.77,533.14 359.50,534.01C359.22,534.88 359.66,540.30 360.48,546.05C361.29,551.80 361.97,557.06 361.98,557.75C361.99,558.44 362.52,559.00 363.15,559.00zM418.18,555.00C419.34,553.62 421.80,549.35 423.64,545.49C425.48,541.64 428.15,533.99 429.57,528.49C431.90,519.50 432.11,517.15 431.70,505.00C431.39,495.92 430.70,490.04 429.59,487.04C428.68,484.59 427.39,482.23 426.72,481.81C426.05,481.38 425.11,481.02 424.64,481.02C424.16,481.01 424.05,484.26 424.38,488.25C424.71,492.24 425.27,501.46 425.62,508.75C426.05,517.60 425.86,524.07 425.04,528.25C424.38,531.69 422.07,539.19 419.91,544.93C417.76,550.67 416.01,555.84 416.03,556.43C416.05,557.02 417.02,556.38 418.18,555.00zM304.00,549.94C304.82,549.95 307.36,549.11 309.63,548.08C311.90,547.05 314.08,545.68 314.48,545.04C314.87,544.39 314.94,543.61 314.63,543.30C314.32,542.99 312.81,543.25 311.27,543.89C309.73,544.52 307.13,546.14 305.49,547.49C303.62,549.01 303.06,549.93 304.00,549.94zM739.00,540.71C742.50,540.50 742.50,540.50 742.50,527.51C742.50,514.65 742.48,514.52 740.00,513.33C738.62,512.68 730.75,510.96 722.50,509.52C714.25,508.07 702.77,505.80 697.00,504.48C691.23,503.15 673.90,499.10 658.50,495.49C643.10,491.87 622.62,486.94 613.00,484.53C603.38,482.12 591.67,479.46 587.00,478.62C582.33,477.79 571.76,476.14 563.53,474.97C548.55,472.83 548.55,472.83 544.78,476.87C542.70,479.10 541.00,481.77 541.00,482.81C541.00,484.09 542.37,485.27 545.25,486.46C547.59,487.43 551.08,488.83 553.00,489.57C556.50,490.91 556.50,490.91 551.50,490.97C548.75,491.00 545.89,491.42 545.14,491.89C544.40,492.36 544.17,492.98 544.64,493.27C545.11,493.55 550.45,494.78 556.50,495.99C562.55,497.20 571.10,499.04 575.50,500.09C579.90,501.13 586.15,501.99 589.39,501.99C592.99,502.00 600.16,503.34 607.89,505.47C614.82,507.38 627.92,510.54 637.00,512.50C646.08,514.46 662.95,518.33 674.50,521.10C686.05,523.86 696.94,526.58 698.70,527.12C700.76,527.77 701.71,528.60 701.37,529.49C701.08,530.24 701.95,531.57 703.32,532.48C704.69,533.37 712.49,535.64 720.65,537.51C728.82,539.38 737.08,540.82 739.00,540.71zM726.75,530.90C726.06,530.84 723.70,530.40 721.50,529.92C719.30,529.44 715.76,528.55 713.63,527.95C711.25,527.27 710.11,526.49 710.68,525.92C711.25,525.35 713.86,525.41 717.44,526.07C720.64,526.67 724.33,527.56 725.63,528.05C726.93,528.55 728.00,529.41 728.00,529.98C728.00,530.54 727.44,530.95 726.75,530.90zM436.94,512.00C437.45,512.00 440.91,508.65 444.62,504.55C448.33,500.46 451.71,497.32 452.13,497.58C452.55,497.84 454.67,495.68 456.85,492.78C459.02,489.87 462.48,485.94 464.55,484.03C466.61,482.12 469.12,478.75 470.13,476.53C471.35,473.84 471.96,470.10 471.98,465.31C471.99,461.35 471.64,457.89 471.19,457.62C470.75,457.35 467.94,458.77 464.94,460.78C461.95,462.79 454.10,468.23 447.50,472.88C440.90,477.53 434.57,482.15 433.44,483.16C431.37,485.00 431.37,485.00 433.60,498.25C434.82,505.54 435.86,511.61 435.91,511.75C435.96,511.89 436.42,512.00 436.94,512.00zM340.30,508.00C341.96,508.00 342.16,507.52 341.62,504.75C341.27,502.96 339.66,498.80 338.05,495.50C336.44,492.20 332.39,485.40 329.05,480.40C325.55,475.14 319.30,467.74 314.25,462.87C309.44,458.24 303.93,453.26 302.00,451.81C300.07,450.37 297.60,449.09 296.50,448.98C295.40,448.86 293.94,448.82 293.25,448.88C292.56,448.95 292.00,449.50 292.00,450.10C292.00,450.71 295.20,454.38 299.12,458.25C303.03,462.13 308.29,468.50 310.80,472.40C313.31,476.31 318.00,482.43 321.22,486.00C324.43,489.57 328.72,494.98 330.75,498.00C332.78,501.02 335.31,504.51 336.39,505.75C337.47,506.99 339.23,508.00 340.30,508.00zM490.92,503.00C491.42,503.00 493.70,500.88 495.98,498.28C498.26,495.69 501.64,490.40 503.49,486.53C505.33,482.67 507.89,476.12 509.17,472.00C511.19,465.49 511.50,462.46 511.48,449.00C511.46,435.28 511.14,432.38 508.76,423.79C507.28,418.45 504.65,411.25 502.92,407.79C501.18,404.33 497.81,398.53 495.41,394.91C493.02,391.28 486.15,383.58 480.16,377.79C474.17,372.00 465.05,364.48 459.88,361.07C454.72,357.67 444.65,352.00 437.50,348.47C429.50,344.53 421.23,341.27 416.00,340.01C411.32,338.88 404.12,337.70 400.00,337.39C395.88,337.07 390.59,337.25 388.25,337.80C385.91,338.34 384.00,338.45 384.00,338.05C384.00,337.64 385.91,336.51 388.25,335.54C390.59,334.57 393.53,333.38 394.80,332.89C396.06,332.40 398.34,332.00 399.86,332.00C401.37,332.00 403.49,331.35 404.56,330.56C406.36,329.22 406.39,328.91 404.97,326.31C403.99,324.52 402.47,323.39 400.77,323.19C399.31,323.02 394.46,324.03 390.00,325.44C385.54,326.85 380.85,328.00 379.57,328.00C378.29,328.00 376.70,327.34 376.04,326.54C375.37,325.74 375.10,324.65 375.43,324.11C375.76,323.57 378.48,322.42 381.46,321.55C384.45,320.69 388.94,319.10 391.44,318.02C393.95,316.95 396.00,315.58 396.00,314.98C396.00,314.38 393.41,312.70 390.25,311.26C385.23,308.96 383.28,308.64 374.89,308.72C366.78,308.81 364.20,309.27 358.39,311.65C352.15,314.20 350.56,314.44 341.55,314.17C336.07,314.00 329.41,314.17 326.75,314.53C323.77,314.94 322.05,315.64 322.28,316.35C322.49,316.98 325.03,317.79 327.92,318.15C330.82,318.51 337.08,320.23 341.84,321.96C346.60,323.70 351.69,325.77 353.15,326.56C354.61,327.35 356.51,328.00 357.37,328.00C358.28,328.00 358.72,327.43 358.42,326.64C358.13,325.89 356.79,324.69 355.45,323.97C354.10,323.25 353.00,322.28 353.00,321.81C353.00,321.33 354.34,321.64 355.99,322.49C357.63,323.34 360.61,325.47 362.61,327.23C364.60,328.98 367.32,332.14 368.65,334.24C369.98,336.35 371.62,337.96 372.29,337.82C372.95,337.68 374.67,338.34 376.10,339.30C377.72,340.38 383.98,341.80 392.55,343.04C400.16,344.14 409.03,345.73 412.25,346.57C415.48,347.40 421.35,349.25 425.31,350.67C429.26,352.09 435.92,354.97 440.11,357.07C444.29,359.16 451.27,363.56 455.61,366.84C459.95,370.11 468.70,378.13 475.06,384.65C481.42,391.17 488.45,399.20 490.67,402.50C492.90,405.80 495.86,410.75 497.24,413.50C498.63,416.25 500.75,422.01 501.95,426.29C503.15,430.58 503.95,434.86 503.72,435.79C503.36,437.28 503.21,437.25 502.52,435.50C502.09,434.40 500.61,430.92 499.24,427.76C497.86,424.61 496.11,421.51 495.35,420.87C494.58,420.24 493.75,419.91 493.51,420.15C493.27,420.40 494.81,426.65 496.92,434.05C499.04,441.45 501.10,449.90 501.49,452.84C501.98,456.47 502.54,457.86 503.23,457.17C503.84,456.56 504.08,452.50 503.82,447.04C503.58,442.03 503.75,438.58 504.20,439.39C504.65,440.19 505.28,444.14 505.61,448.17C505.94,452.20 505.72,459.02 505.11,463.32C504.50,467.63 502.85,474.60 501.45,478.82C500.05,483.05 496.90,489.98 494.45,494.23C492.00,498.48 490.00,502.19 490.00,502.48C490.00,502.76 490.41,503.00 490.92,503.00zM741.50,502.54C742.05,502.43 742.50,501.26 742.50,499.95C742.50,497.85 741.68,497.36 735.50,495.71C731.65,494.68 719.73,491.39 709.00,488.39C693.15,483.97 689.11,482.48 687.43,480.43C686.12,478.84 682.92,477.18 678.72,475.92C675.07,474.83 658.51,470.78 641.93,466.93C625.35,463.09 608.34,459.48 604.14,458.92C599.94,458.35 592.13,457.24 586.80,456.45C581.46,455.65 575.07,455.00 572.60,455.00C570.14,455.00 567.82,455.48 567.46,456.07C567.10,456.65 567.03,457.37 567.32,457.65C567.60,457.94 571.98,459.22 577.04,460.51C582.11,461.80 586.71,463.31 587.27,463.87C587.95,464.55 587.18,465.34 584.89,466.30C581.50,467.71 581.50,467.71 587.00,469.38C590.02,470.30 600.38,472.63 610.00,474.56C619.62,476.49 637.85,480.55 650.50,483.58C663.15,486.62 674.95,489.56 676.73,490.12C678.50,490.68 679.85,491.63 679.73,492.23C679.60,492.83 681.30,493.86 683.50,494.51C685.70,495.17 689.30,495.98 691.50,496.33C695.50,496.95 695.50,496.95 691.50,495.05C689.30,494.00 687.95,493.11 688.50,493.07C689.05,493.03 700.30,495.04 713.50,497.54C726.70,500.03 738.17,502.23 739.00,502.41C739.83,502.60 740.95,502.66 741.50,502.54zM152.85,493.94C154.86,493.98 158.97,492.55 163.10,490.38C166.90,488.38 170.00,486.36 170.00,485.88C170.00,485.39 168.00,485.00 165.57,485.00C163.13,485.00 159.93,485.46 158.46,486.02C156.99,486.57 151.09,487.32 145.35,487.67C139.61,488.02 135.27,488.65 135.70,489.06C136.14,489.48 139.43,490.73 143.00,491.85C146.57,492.97 151.01,493.91 152.85,493.94zM345.47,492.00C346.12,492.00 349.10,490.28 352.08,488.18C355.92,485.47 357.41,483.80 357.20,482.43C357.03,481.37 356.66,478.48 356.37,476.00C355.95,472.37 356.37,470.53 358.56,466.50C360.04,463.75 362.56,458.91 364.14,455.75C365.72,452.59 367.26,450.00 367.56,450.00C367.86,450.00 369.17,452.36 370.47,455.25C371.76,458.14 373.93,461.97 375.28,463.77C376.64,465.57 380.27,469.73 383.36,473.02C387.37,477.29 389.70,479.00 391.52,479.00C392.92,479.00 394.31,478.35 394.62,477.55C394.93,476.75 393.90,473.73 392.34,470.83C390.78,467.93 387.70,463.75 385.50,461.53C383.30,459.31 380.17,456.57 378.55,455.43C375.60,453.36 375.60,453.36 376.86,447.74C377.55,444.65 379.02,440.97 380.13,439.56C381.24,438.15 382.90,436.99 383.82,436.98C384.75,436.98 386.15,436.56 386.94,436.06C388.13,435.31 388.15,434.88 387.06,433.58C386.34,432.71 384.52,432.00 383.02,432.00C381.51,432.00 377.75,430.65 374.66,429.00C371.57,427.35 368.54,426.00 367.93,426.00C367.32,426.00 364.13,427.89 360.84,430.19C354.87,434.38 354.87,434.38 351.50,432.57C349.65,431.57 346.66,429.52 344.85,428.02C341.57,425.28 341.57,425.28 346.38,420.90C351.14,416.57 351.19,416.46 350.56,411.74C350.06,407.95 350.25,406.84 351.47,406.37C352.32,406.05 354.02,406.46 355.26,407.30C356.49,408.13 361.55,412.46 366.50,416.93C371.45,421.39 377.90,426.23 380.84,427.68C385.07,429.77 386.35,430.05 387.00,429.00C387.65,427.95 388.41,428.07 390.79,429.59C392.43,430.64 395.76,433.98 398.18,437.00C400.60,440.02 405.82,447.00 409.77,452.50C413.72,458.00 417.59,463.40 418.37,464.50C419.16,465.60 420.08,466.22 420.43,465.89C420.77,465.55 421.39,463.30 421.80,460.89C422.40,457.40 423.00,456.43 424.77,456.18C425.99,456.01 430.08,453.03 433.86,449.56C437.63,446.10 443.44,441.42 446.77,439.16C450.09,436.90 453.76,433.85 454.91,432.39C456.06,430.93 456.98,429.23 456.95,428.62C456.93,428.00 456.35,426.19 455.67,424.59C454.43,421.69 454.43,421.69 450.96,424.71C449.06,426.38 443.68,430.22 439.00,433.25C434.32,436.28 428.93,439.61 427.00,440.66C425.07,441.70 422.28,443.37 420.78,444.37C419.29,445.37 417.64,446.03 417.11,445.84C416.59,445.65 413.42,441.95 410.08,437.62C406.74,433.28 404.00,429.40 404.00,428.98C404.00,428.57 405.70,426.70 407.77,424.83C409.84,422.96 414.45,419.95 418.02,418.15C421.58,416.35 425.59,413.98 426.92,412.89C428.25,411.80 429.41,409.94 429.50,408.75C429.61,407.32 430.57,406.36 432.39,405.87C433.90,405.47 435.77,404.60 436.56,403.95C437.35,403.29 438.00,402.36 438.00,401.88C438.00,401.40 436.33,399.16 434.29,396.89C432.24,394.63 428.08,391.09 425.04,389.03C421.99,386.96 416.35,383.69 412.50,381.75C408.65,379.82 402.44,377.29 398.70,376.13C394.96,374.98 387.01,373.49 381.03,372.83C372.73,371.90 368.12,371.89 361.61,372.76C356.92,373.39 347.00,375.95 339.58,378.46C332.16,380.96 323.03,383.63 319.29,384.40C315.56,385.16 309.80,386.11 306.51,386.49C303.22,386.88 296.92,388.26 292.51,389.55C288.10,390.84 277.98,394.53 270.00,397.75C262.02,400.97 250.44,405.13 244.25,406.99C238.06,408.85 233.00,410.67 233.00,411.02C233.00,411.37 235.89,412.19 239.43,412.84C242.96,413.49 249.72,415.14 254.45,416.51C259.18,417.88 267.65,421.31 273.27,424.13C278.90,426.94 287.44,431.89 292.24,435.12C297.05,438.36 301.39,441.00 301.87,441.00C302.36,441.00 303.37,440.25 304.13,439.32C304.88,438.40 310.57,435.25 316.76,432.32C322.96,429.40 328.49,427.00 329.06,427.00C329.64,427.00 330.72,428.47 331.47,430.27C332.22,432.07 333.66,434.27 334.67,435.17C335.68,436.07 338.07,437.46 340.00,438.26C341.93,439.07 344.40,440.77 345.50,442.05C347.44,444.31 347.37,444.31 342.88,441.72C338.25,439.06 338.25,439.06 336.39,441.12C335.36,442.26 331.82,444.78 328.51,446.74C325.21,448.70 320.78,450.82 318.68,451.46C314.86,452.61 314.86,452.61 325.84,466.25C331.87,473.75 338.49,482.61 340.55,485.94C342.60,489.27 344.82,492.00 345.47,492.00zM94.89,477.00C96.49,477.00 100.65,476.13 104.14,475.06C107.64,474.00 114.78,472.11 120.00,470.87C128.18,468.93 129.08,468.52 126.50,467.93C124.85,467.55 120.10,467.18 115.95,467.12C109.07,467.01 107.66,467.35 100.20,470.96C95.69,473.14 92.00,475.39 92.00,475.96C92.00,476.53 93.30,477.00 94.89,477.00zM184.14,474.95C185.05,474.98 192.02,471.70 199.64,467.66C207.27,463.62 215.18,459.76 217.24,459.08C219.29,458.41 221.23,457.44 221.55,456.93C221.86,456.42 223.91,456.00 226.09,456.00C228.56,456.00 230.26,455.47 230.60,454.61C230.89,453.84 235.26,451.08 240.32,448.47C245.37,445.86 250.76,442.84 252.30,441.76C253.85,440.67 254.97,439.06 254.79,438.15C254.62,437.25 252.46,435.53 249.99,434.32C246.94,432.82 246.16,432.10 247.56,432.06C248.69,432.03 252.41,432.95 255.83,434.10C259.25,435.26 265.47,438.43 269.65,441.16C277.22,446.10 277.25,446.11 279.37,444.18C280.54,443.12 282.51,441.73 283.75,441.09C284.99,440.45 286.00,439.31 286.00,438.55C286.00,437.79 281.11,434.67 275.12,431.61C269.14,428.55 260.26,424.72 255.37,423.09C250.49,421.47 242.98,419.66 238.68,419.07C234.38,418.48 226.48,418.00 221.14,418.00C215.59,418.00 208.87,418.66 205.46,419.55C202.18,420.40 193.43,423.83 186.00,427.17C178.57,430.51 163.95,437.32 153.50,442.30C143.05,447.28 134.35,451.72 134.17,452.17C133.99,452.61 130.84,454.56 127.17,456.51C123.50,458.45 119.38,460.95 118.00,462.05C115.50,464.07 115.50,464.07 128.00,463.42C135.83,463.01 143.49,463.21 148.50,463.94C152.90,464.59 159.79,466.00 163.81,467.07C167.82,468.15 173.67,470.35 176.81,471.96C179.94,473.58 183.24,474.93 184.14,474.95zM41.06,469.00C42.20,469.00 45.46,467.96 48.31,466.68C51.17,465.41 55.49,463.72 57.93,462.93C60.36,462.14 62.54,460.94 62.76,460.25C63.00,459.51 62.28,459.00 60.98,459.00C59.78,459.00 57.26,459.73 55.37,460.63C52.20,462.13 51.80,462.13 50.14,460.63C49.15,459.73 47.19,459.00 45.78,459.00C44.37,459.00 40.13,459.94 36.36,461.09C32.58,462.24 29.11,463.55 28.64,464.00C28.17,464.45 28.74,465.33 29.91,465.95C31.43,466.76 33.09,466.79 35.76,466.05C37.82,465.48 39.93,465.01 40.45,465.01C40.97,465.00 40.86,465.54 40.20,466.20C39.54,466.86 39.00,467.76 39.00,468.20C39.00,468.64 39.93,469.00 41.06,469.00zM741.75,465.91C742.65,465.97 743.00,463.80 743.00,458.08C743.00,450.16 743.00,450.16 738.25,448.62C735.64,447.78 727.65,445.89 720.50,444.43C713.35,442.96 704.81,440.64 701.51,439.27C698.05,437.82 682.97,434.29 665.72,430.88C649.33,427.64 628.45,423.90 619.32,422.58C610.19,421.25 602.11,420.40 601.36,420.69C600.61,420.98 600.00,421.61 600.00,422.09C600.00,422.57 597.86,424.06 595.25,425.41C592.64,426.75 588.92,429.19 587.00,430.83C583.50,433.81 583.50,433.81 586.00,434.36C587.38,434.66 593.23,435.65 599.00,436.55C604.77,437.45 614.90,439.29 621.50,440.64C628.10,441.99 647.00,445.98 663.50,449.51C680.00,453.04 695.41,456.23 697.73,456.59C701.13,457.12 702.09,456.93 702.59,455.62C702.93,454.73 702.51,452.23 701.64,450.07C700.46,447.11 700.37,446.04 701.29,445.73C701.95,445.51 704.55,445.86 707.05,446.52C709.55,447.17 712.58,448.24 713.80,448.89C715.49,449.80 716.00,450.97 716.00,453.96C716.00,456.11 716.68,458.53 717.50,459.36C718.33,460.19 722.49,461.61 726.75,462.53C731.01,463.44 735.85,464.56 737.50,465.01C739.15,465.45 741.06,465.86 741.75,465.91zM78.75,458.43C80.26,458.10 84.42,456.90 88.00,455.78C91.58,454.65 95.06,453.29 95.75,452.74C96.44,452.20 97.00,451.36 97.00,450.88C97.00,450.39 96.51,450.00 95.92,450.00C95.32,450.00 90.59,451.67 85.42,453.71C80.24,455.76 76.00,457.79 76.00,458.23C76.00,458.68 77.24,458.76 78.75,458.43zM741.25,439.88C742.76,439.98 743.00,439.05 743.00,433.04C743.00,427.42 742.66,425.89 741.25,425.15C740.29,424.65 737.48,423.91 735.00,423.52C732.52,423.13 721.73,420.64 711.00,417.98C700.27,415.32 682.27,411.33 671.00,409.12C659.73,406.91 646.50,404.58 641.62,403.94C636.74,403.30 630.03,402.97 626.72,403.21C621.93,403.56 620.32,404.13 618.80,405.99C617.25,407.91 617.14,408.57 618.20,409.61C618.92,410.31 624.45,412.24 630.50,413.91C636.55,415.58 645.10,417.69 649.50,418.59C653.90,419.49 658.26,420.63 659.19,421.12C660.12,421.61 670.47,424.44 682.19,427.41C693.91,430.38 710.70,434.18 719.50,435.84C728.30,437.51 736.40,439.08 737.50,439.32C738.60,439.57 740.29,439.82 741.25,439.88zM144.22,433.98C144.92,433.97 147.45,433.07 149.83,431.99C152.91,430.59 154.06,429.52 153.81,428.26C153.63,427.29 152.92,426.55 152.24,426.60C151.56,426.65 149.51,426.77 147.69,426.85C145.87,426.93 143.66,427.56 142.78,428.25C141.61,429.17 141.42,430.10 142.06,431.75C142.54,432.99 143.51,433.99 144.22,433.98zM520.86,425.74C523.96,422.74 530.10,417.66 534.50,414.46C538.90,411.26 546.33,405.51 551.00,401.67C555.67,397.83 561.41,392.86 563.75,390.64C566.37,388.14 568.00,385.69 568.00,384.26C568.00,382.98 567.35,380.37 566.55,378.45C565.74,376.54 564.46,374.73 563.70,374.44C562.93,374.14 555.60,378.22 547.40,383.49C539.21,388.76 526.95,396.94 520.17,401.66C508.72,409.65 507.89,410.44 508.50,412.86C508.86,414.29 510.52,419.01 512.19,423.34C515.23,431.21 515.23,431.21 520.86,425.74zM740.25,414.88C743.00,415.00 743.00,414.99 743.00,408.06C743.00,402.25 742.63,400.71 740.75,398.65C739.19,396.95 735.13,395.20 727.50,392.95C721.45,391.16 712.93,388.63 708.56,387.33C704.20,386.02 700.41,384.74 700.14,384.48C699.88,384.22 699.96,383.71 700.31,383.36C700.66,383.00 705.80,383.46 711.73,384.36C717.65,385.27 725.22,386.01 728.55,386.01C731.91,386.00 735.13,385.47 735.80,384.80C736.46,384.14 737.00,382.79 737.00,381.80C737.00,380.81 736.74,380.00 736.42,380.00C736.10,380.00 726.32,377.78 714.67,375.08C703.03,372.37 687.65,369.00 680.50,367.60C673.35,366.19 663.74,364.66 659.14,364.20C651.78,363.47 650.51,363.58 648.64,365.16C646.80,366.71 646.71,367.10 648.00,367.96C648.83,368.52 650.47,368.98 651.65,368.98C652.83,368.99 660.48,370.58 668.65,372.50C676.82,374.43 684.51,376.24 685.75,376.52C686.99,376.81 688.00,377.41 688.00,377.86C688.00,378.31 686.96,379.15 685.69,379.73C683.98,380.51 680.39,380.26 671.60,378.72C662.01,377.05 659.21,376.89 656.58,377.83C654.81,378.48 649.87,379.00 645.61,379.00C641.35,379.00 637.00,379.47 635.93,380.04C634.83,380.63 634.00,382.12 634.00,383.52C634.00,385.31 634.69,386.13 636.56,386.60C638.17,387.01 638.93,387.75 638.60,388.61C638.31,389.36 638.86,390.39 639.82,390.90C640.78,391.42 648.30,393.18 656.53,394.82C664.76,396.46 678.56,399.05 687.20,400.58C695.83,402.11 702.69,403.68 702.45,404.07C702.21,404.46 703.12,405.51 704.48,406.39C705.83,407.28 712.91,409.32 720.22,410.93C727.52,412.53 734.40,414.06 735.50,414.31C736.60,414.56 738.74,414.82 740.25,414.88zM486.44,413.69C487.02,413.50 487.64,412.18 487.81,410.75C487.98,409.32 487.13,406.21 485.92,403.83C484.71,401.45 481.77,396.97 479.40,393.87C477.02,390.78 472.92,386.48 470.29,384.32C467.65,382.15 461.82,377.83 457.31,374.71C452.81,371.60 442.91,365.93 435.31,362.12C427.72,358.31 417.68,354.00 413.00,352.53C408.32,351.07 400.00,349.18 394.50,348.34C387.99,347.35 380.83,346.98 374.00,347.31C366.52,347.66 361.16,348.55 355.37,350.41C350.61,351.93 344.01,355.12 339.45,358.10C335.17,360.89 329.04,365.68 325.83,368.74C322.62,371.80 320.00,374.91 320.00,375.65C320.00,376.39 320.35,377.00 320.78,377.00C321.21,377.00 322.67,376.23 324.03,375.29C325.39,374.34 328.89,371.64 331.81,369.27C334.72,366.91 339.76,363.63 343.01,362.00C346.25,360.36 352.41,358.01 356.70,356.78C363.33,354.87 366.90,354.53 380.50,354.53C392.48,354.53 398.39,354.98 404.00,356.33C408.12,357.32 414.88,359.27 419.00,360.67C423.12,362.08 432.35,366.19 439.50,369.81C451.86,376.08 453.07,376.98 464.01,387.95C470.34,394.30 477.74,402.77 480.45,406.77C483.16,410.77 485.86,413.88 486.44,413.69zM189.43,413.00C190.77,413.00 193.02,412.56 194.43,412.02C195.85,411.49 197.00,410.59 197.00,410.02C197.00,409.46 196.08,409.00 194.95,409.00C193.82,409.00 191.57,409.69 189.95,410.53C188.33,411.36 187.00,412.26 187.00,412.53C187.00,412.79 188.10,413.00 189.43,413.00zM374.85,411.97C374.11,411.96 372.26,411.18 370.75,410.24C369.24,409.30 368.00,408.00 368.00,407.35C368.00,406.70 370.08,404.34 372.63,402.10C375.17,399.86 378.88,397.57 380.88,397.02C382.87,396.46 386.83,396.01 389.67,396.01C392.51,396.00 395.55,396.27 396.42,396.61C397.29,396.94 398.00,397.76 398.00,398.44C398.00,399.11 394.29,401.60 389.75,403.98C385.21,406.35 380.31,409.13 378.85,410.15C377.39,411.17 375.59,411.99 374.85,411.97zM153.39,406.00C152.63,406.00 152.00,405.61 152.00,405.12C152.00,404.64 154.14,403.34 156.75,402.23C159.36,401.11 163.65,399.48 166.28,398.60C168.92,397.72 171.73,397.00 172.53,397.00C173.34,397.00 174.00,397.62 174.00,398.38C174.00,399.14 172.76,400.24 171.25,400.83C169.74,401.41 165.42,402.82 161.64,403.95C157.87,405.08 154.16,406.00 153.39,406.00zM244.91,396.00C246.09,396.00 248.57,395.37 250.41,394.60C252.25,393.83 254.08,392.68 254.48,392.04C254.88,391.39 255.01,390.67 254.77,390.44C254.53,390.20 252.27,390.71 249.73,391.58C247.20,392.44 244.59,393.79 243.94,394.57C242.98,395.73 243.16,396.00 244.91,396.00zM503.66,395.00C504.49,395.00 509.88,391.77 515.64,387.81C521.39,383.86 527.77,379.17 529.80,377.40C533.50,374.17 533.50,374.17 530.24,370.78C526.97,367.38 526.97,367.38 529.24,365.34C530.48,364.23 534.73,361.18 538.67,358.58C542.61,355.97 547.67,352.15 549.92,350.08C552.87,347.35 554.00,345.51 554.00,343.43C554.00,341.21 552.61,339.23 547.90,334.75C543.71,330.76 538.95,327.58 532.65,324.55C527.62,322.14 519.67,319.23 515.00,318.09C510.32,316.95 502.68,315.74 498.00,315.39C490.98,314.86 487.93,315.15 480.50,317.04C475.55,318.30 466.70,321.26 460.84,323.62C454.98,325.99 446.20,329.69 441.34,331.85C436.48,334.01 430.70,336.34 428.50,337.02C426.30,337.70 423.91,338.73 423.20,339.30C422.23,340.07 424.05,340.95 430.20,342.71C434.76,344.01 443.00,347.27 448.50,349.94C454.00,352.62 462.52,357.66 467.44,361.15C472.36,364.64 480.46,371.56 485.44,376.52C490.42,381.48 496.22,387.67 498.32,390.27C500.42,392.87 502.82,395.00 503.66,395.00zM264.80,387.40C266.84,386.53 269.06,385.59 269.75,385.30C270.44,385.02 271.00,384.33 271.00,383.77C271.00,383.16 269.72,383.01 267.80,383.39C266.04,383.74 263.55,384.72 262.27,385.56C260.99,386.40 260.20,387.51 260.52,388.03C260.87,388.60 262.61,388.34 264.80,387.40zM605.25,382.39C605.94,382.00 610.10,378.64 614.50,374.94C618.90,371.24 623.96,366.39 625.75,364.16C627.54,361.94 629.00,359.64 629.00,359.06C629.00,358.48 628.66,358.00 628.25,358.00C627.84,358.01 622.21,363.17 615.75,369.48C609.29,375.79 604.00,381.44 604.00,382.03C604.00,382.63 604.56,382.79 605.25,382.39zM743.25,378.00C744.76,378.00 746.00,377.52 746.00,376.93C746.00,376.35 745.45,374.89 744.78,373.68C744.11,372.48 743.55,368.26 743.53,364.30C743.51,360.17 743.00,356.60 742.33,355.93C741.68,355.28 736.73,353.69 731.33,352.38C725.92,351.08 712.74,348.44 702.04,346.51C691.34,344.58 680.40,343.00 677.73,343.00C675.05,343.00 671.91,343.51 670.74,344.14C668.63,345.27 668.63,345.30 671.46,347.55C674.31,349.82 674.31,349.82 670.40,350.90C668.26,351.50 665.54,351.99 664.37,351.99C663.20,352.00 661.72,352.63 661.07,353.41C660.43,354.19 660.26,355.04 660.70,355.30C661.14,355.57 672.93,358.11 686.90,360.95C700.87,363.79 713.92,366.93 715.90,367.92C717.88,368.92 722.88,370.49 727.00,371.41C731.52,372.42 735.69,374.06 737.50,375.54C739.15,376.89 741.74,377.99 743.25,378.00zM603.75,359.15C605.26,358.06 611.26,352.51 617.09,346.83C622.91,341.15 630.22,334.15 633.34,331.28C638.74,326.29 639.00,325.83 639.00,321.15C639.00,318.15 638.45,315.79 637.59,315.08C636.46,314.14 634.15,315.55 625.84,322.27C620.15,326.87 611.11,333.92 605.75,337.94C600.39,341.96 596.00,345.57 596.00,345.98C596.00,346.38 597.12,349.81 598.50,353.60C599.88,357.39 601.00,360.64 601.00,360.81C601.00,360.99 602.24,360.24 603.75,359.15zM307.10,359.97C307.42,359.99 308.50,359.10 309.50,358.00C310.50,356.90 312.07,356.00 313.00,356.00C313.93,356.00 315.50,356.90 316.50,358.00C317.50,359.10 318.98,360.00 319.80,360.00C320.63,360.00 324.04,358.69 327.40,357.08C330.75,355.48 335.52,353.58 338.00,352.87C340.48,352.16 344.75,350.44 347.50,349.04C350.25,347.64 352.65,345.68 352.83,344.67C353.02,343.66 352.92,341.83 352.61,340.59C352.30,339.36 351.02,337.88 349.77,337.30C348.01,336.50 346.72,336.68 344.10,338.09C341.68,339.38 340.19,339.63 338.92,338.96C337.70,338.30 333.14,338.79 324.32,340.52C317.27,341.90 308.49,343.93 304.80,345.03C301.12,346.13 297.85,347.43 297.54,347.93C297.24,348.43 299.13,351.33 301.74,354.39C304.36,357.44 306.77,359.95 307.10,359.97zM644.35,353.00C645.13,353.00 647.38,351.22 649.35,349.04C651.32,346.86 654.15,343.14 655.64,340.79C657.13,338.43 659.22,333.80 660.27,330.50C661.54,326.54 662.22,321.41 662.28,315.42C662.34,308.51 661.80,304.57 660.02,298.92C657.81,291.91 657.12,290.94 647.57,281.40C639.38,273.22 635.99,270.59 629.78,267.60C624.90,265.26 618.35,263.18 611.80,261.90C603.05,260.20 600.33,260.05 593.74,260.93C589.47,261.50 584.52,262.76 582.74,263.73C579.50,265.50 579.50,265.50 594.00,266.13C604.36,266.58 610.60,267.38 615.85,268.91C619.90,270.10 625.07,272.00 627.35,273.15C629.63,274.30 634.31,277.23 637.73,279.66C641.16,282.09 645.57,286.18 647.53,288.74C649.49,291.31 652.54,296.36 654.30,299.96C657.28,306.05 657.50,307.21 657.50,317.00C657.50,326.71 657.26,328.00 654.34,334.18C652.60,337.85 649.32,343.59 647.05,346.93C644.35,350.91 643.42,353.00 644.35,353.00zM579.88,351.45C580.09,351.24 579.77,349.81 579.16,348.28C578.55,346.75 577.84,344.26 577.59,342.73C577.34,341.21 576.09,338.71 574.81,337.17C573.54,335.63 570.48,332.71 568.00,330.69C565.53,328.66 562.89,327.00 562.13,327.00C560.97,327.00 560.96,327.29 562.13,328.88C562.88,329.92 567.10,335.51 571.50,341.30C575.90,347.10 579.67,351.66 579.88,351.45zM257.12,345.46C259.43,344.64 261.93,343.47 262.66,342.86C263.72,341.99 264.00,336.11 264.00,315.04C264.00,300.35 263.70,277.45 263.34,264.16C262.68,240.00 262.68,240.00 256.19,240.00C249.69,240.00 249.69,240.00 250.35,255.75C250.71,264.41 251.26,287.93 251.58,308.00C251.90,328.07 252.33,345.05 252.54,345.72C252.83,346.66 253.90,346.59 257.12,345.46zM360.25,341.99C360.66,341.99 361.00,341.47 361.00,340.83C361.00,340.18 358.89,337.63 356.31,335.16C353.65,332.62 351.44,331.17 351.22,331.84C351.00,332.49 351.68,334.48 352.72,336.26C353.76,338.04 355.71,340.05 357.05,340.73C358.40,341.41 359.84,341.98 360.25,341.99zM740.25,341.88C744.00,342.00 744.00,342.00 744.00,335.04C744.00,328.08 744.00,328.08 740.25,327.07C738.19,326.52 730.88,325.32 724.00,324.40C717.12,323.48 704.76,322.67 696.52,322.61C683.34,322.51 681.51,322.70 681.22,324.15C680.95,325.48 682.29,326.02 688.20,326.97C692.21,327.61 696.17,328.42 697.00,328.78C697.83,329.14 696.49,329.56 694.00,329.72C691.52,329.88 687.98,330.26 686.12,330.57C683.68,330.98 683.04,331.44 683.83,332.23C684.43,332.83 696.53,335.22 710.71,337.54C724.90,339.86 738.19,341.81 740.25,341.88zM587.99,332.00C588.95,332.00 590.87,331.10 592.27,330.00C593.67,328.90 595.55,328.00 596.46,328.00C597.36,328.00 599.09,326.96 600.30,325.69C601.51,324.42 605.65,320.73 609.50,317.50C613.35,314.27 619.57,308.35 623.33,304.34C628.85,298.44 630.02,296.64 629.46,294.88C629.08,293.69 626.95,290.73 624.72,288.31C622.49,285.89 617.92,282.39 614.58,280.54C611.24,278.68 606.57,276.66 604.21,276.03C601.85,275.41 596.20,274.48 591.66,273.96C584.66,273.17 582.43,273.31 576.95,274.90C573.40,275.92 563.52,279.53 555.00,282.90C546.48,286.28 537.11,290.16 534.20,291.54C531.28,292.91 529.15,294.44 529.46,294.93C529.77,295.43 534.20,297.24 539.31,298.94C544.43,300.64 552.05,304.00 556.26,306.39C560.46,308.79 566.84,313.09 570.44,315.95C574.03,318.81 579.06,323.59 581.61,326.58C584.16,329.56 587.03,332.00 587.99,332.00zM652.78,310.58C652.98,308.42 652.40,304.70 651.48,302.32C650.57,299.93 648.97,297.52 647.91,296.95C646.66,296.28 646.00,296.27 646.00,296.93C646.00,297.48 646.96,300.53 648.14,303.71C649.32,306.90 650.77,310.62 651.35,312.00C652.38,314.40 652.44,314.34 652.78,310.58zM424.19,309.00C422.50,309.00 420.87,308.60 420.57,308.11C420.26,307.62 421.13,306.49 422.50,305.59C423.86,304.70 432.07,301.48 440.74,298.43C449.41,295.38 461.23,291.61 467.00,290.05C472.77,288.49 481.86,285.85 487.19,284.17C492.52,282.49 499.61,280.80 502.94,280.43C506.27,280.05 509.00,280.05 509.00,280.44C509.00,280.82 505.29,282.82 500.75,284.88C496.21,286.94 487.55,290.09 481.50,291.88C475.45,293.66 460.77,298.25 448.88,302.06C436.99,305.88 425.88,309.00 424.19,309.00zM687.86,305.07C689.14,304.39 691.91,302.27 694.02,300.36C696.13,298.46 699.20,294.78 700.85,292.20C702.49,289.61 704.61,284.82 705.55,281.54C706.82,277.12 707.11,273.63 706.67,268.04C706.34,263.89 705.35,258.38 704.46,255.79C703.29,252.39 701.07,249.43 696.50,245.15C692.95,241.83 686.98,237.63 682.95,235.61C678.98,233.62 674.55,232.01 673.12,232.02C671.68,232.02 669.84,232.45 669.03,232.96C667.73,233.78 667.73,233.95 669.03,234.37C669.84,234.63 672.30,235.39 674.50,236.06C676.70,236.73 680.70,238.37 683.38,239.72C686.07,241.07 690.48,244.39 693.19,247.10C695.91,249.81 699.11,254.16 700.31,256.77C702.07,260.58 702.50,263.34 702.50,271.00C702.50,279.15 702.13,281.28 699.90,286.00C698.47,289.02 695.32,293.92 692.90,296.88C690.48,299.84 687.84,303.17 687.02,304.29C685.62,306.22 685.65,306.26 687.86,305.07zM347.50,297.34C344.20,297.70 340.90,297.61 340.18,297.14C339.30,296.58 340.44,296.07 343.57,295.65C346.16,295.29 350.58,295.04 353.39,295.09C357.33,295.15 357.93,295.35 356.00,295.93C354.62,296.35 350.80,296.98 347.50,297.34zM661.81,291.99C662.19,291.99 666.64,288.72 671.70,284.74C676.75,280.76 683.39,275.48 686.44,273.00C691.11,269.21 691.99,267.98 692.00,265.25C692.00,262.93 691.54,262.00 690.40,262.00C689.52,262.00 686.48,264.10 683.65,266.66C680.82,269.22 675.58,273.21 672.00,275.53C668.42,277.84 663.55,280.72 661.17,281.93C656.85,284.12 656.85,284.12 657.17,281.83C657.37,280.43 659.80,277.78 663.41,275.02C666.66,272.54 672.07,267.94 675.43,264.81C678.79,261.69 682.77,258.66 684.27,258.09C685.93,257.46 687.00,256.30 687.00,255.14C687.00,254.09 685.16,251.57 682.92,249.55C680.68,247.52 676.80,244.98 674.30,243.91C671.80,242.84 667.85,241.49 665.51,240.90C661.76,239.95 660.46,240.15 654.38,242.56C650.60,244.06 641.76,248.15 634.75,251.65C627.74,255.15 622.00,258.60 622.00,259.31C622.00,260.02 623.46,261.13 625.25,261.78C627.04,262.43 631.20,264.74 634.50,266.90C637.80,269.07 643.20,273.46 646.50,276.67C649.80,279.88 654.44,284.64 656.81,287.25C659.17,289.86 661.42,292.00 661.81,291.99zM438.18,288.00C436.64,287.99 436.49,285.40 436.43,257.47C436.38,232.08 436.12,226.69 434.91,225.48C433.93,224.51 428.12,223.40 417.60,222.20C404.42,220.68 401.51,220.06 400.35,218.46C399.29,217.01 399.01,213.69 399.22,205.02C399.50,193.50 399.50,193.50 407.93,193.73C413.32,193.88 416.64,194.41 417.12,195.20C417.54,195.88 418.19,199.27 418.56,202.73C418.93,206.19 419.63,209.27 420.12,209.57C420.60,209.87 421.00,206.96 421.00,203.09C421.00,197.39 421.33,195.91 422.75,195.24C423.71,194.78 429.26,194.58 435.08,194.79C445.66,195.17 445.66,195.17 445.61,205.84C445.58,211.70 445.90,217.77 446.31,219.32C446.73,220.87 447.62,221.96 448.29,221.74C449.14,221.45 449.50,217.96 449.51,209.92C449.52,203.64 449.89,197.94 450.32,197.25C450.89,196.37 454.56,196.00 462.89,196.00C469.37,196.00 474.94,196.28 475.28,196.61C475.62,196.95 475.18,198.32 474.31,199.66C473.01,201.63 472.82,204.01 473.24,212.39C473.53,218.06 474.29,223.67 474.92,224.85C475.55,226.03 476.50,227.00 477.04,227.00C477.60,227.00 478.00,221.75 478.00,214.19C478.00,205.45 478.40,200.88 479.25,199.81C479.94,198.95 482.07,197.97 484.00,197.63C485.93,197.29 488.85,196.80 490.50,196.54C492.15,196.28 492.60,196.33 491.50,196.64C490.40,196.96 488.94,197.67 488.25,198.23C487.37,198.94 487.00,202.86 487.02,211.37C487.02,218.04 487.43,224.13 487.91,224.90C488.54,225.89 490.00,226.13 492.94,225.74C495.22,225.43 497.78,224.60 498.63,223.89C499.93,222.81 500.13,220.45 499.85,209.80C499.66,202.76 499.83,197.00 500.23,197.00C500.63,197.00 501.21,198.01 501.52,199.25C501.83,200.49 501.95,206.90 501.79,213.50C501.50,225.50 501.50,225.50 496.00,227.33C492.98,228.33 486.68,229.40 482.00,229.70C476.77,230.03 468.21,229.59 459.75,228.56C452.18,227.64 445.49,227.20 444.87,227.58C444.06,228.08 443.95,236.17 444.49,257.12C445.22,285.97 445.22,285.97 442.54,286.98C441.07,287.54 439.11,288.00 438.18,288.00zM127.50,283.88C123.10,283.82 117.81,283.44 115.74,283.04C113.67,282.64 111.71,282.04 111.38,281.71C111.05,281.38 112.20,280.24 113.93,279.19C115.67,278.13 119.88,276.99 123.30,276.64C126.71,276.30 133.03,276.42 137.35,276.91C141.67,277.40 145.67,278.27 146.23,278.83C146.80,279.40 147.02,280.50 146.72,281.28C146.40,282.13 144.04,282.96 140.84,283.34C137.90,283.69 131.90,283.93 127.50,283.88zM533.96,282.65C534.81,282.38 542.38,279.36 550.79,275.94C561.80,271.45 566.01,269.28 565.79,268.21C565.63,267.39 564.75,266.24 563.83,265.66C562.53,264.84 558.96,265.98 547.72,270.81C539.77,274.21 532.87,277.01 532.39,277.02C531.90,277.02 530.84,277.45 530.04,277.95C528.79,278.74 528.86,279.19 530.50,281.00C531.56,282.17 533.11,282.91 533.96,282.65zM711.07,272.00C711.72,272.00 716.05,268.06 720.69,263.25C725.33,258.44 730.71,252.60 732.65,250.28C734.60,247.96 735.99,245.49 735.75,244.78C735.50,244.04 730.69,248.29 724.29,254.89C718.23,261.15 712.51,267.56 711.58,269.14C710.45,271.05 710.28,272.00 711.07,272.00zM526.53,265.00C524.59,265.00 523.00,264.79 523.00,264.53C523.00,264.27 525.48,263.34 528.50,262.46C531.53,261.58 534.80,261.05 535.75,261.28C537.02,261.58 536.49,262.15 533.78,263.35C531.74,264.26 528.47,265.00 526.53,265.00zM601.73,258.81C603.17,258.64 604.52,257.97 604.74,257.31C604.95,256.66 604.17,255.17 603.00,254.00C601.66,252.66 599.91,251.99 598.27,252.19C596.83,252.36 595.48,253.03 595.26,253.69C595.05,254.34 595.83,255.83 597.00,257.00C598.34,258.34 600.09,259.01 601.73,258.81zM614.25,253.96C614.66,253.98 615.00,253.36 615.00,252.58C615.00,251.79 613.83,249.77 612.41,248.08C610.99,246.38 609.52,245.01 609.16,245.02C608.80,245.02 607.83,245.47 607.00,246.01C605.76,246.82 606.20,247.60 609.50,250.46C611.70,252.37 613.84,253.94 614.25,253.96zM706.59,251.21C707.40,250.76 713.25,246.15 719.60,240.96C730.49,232.07 731.12,231.35 730.56,228.56C730.24,226.93 729.00,224.56 727.81,223.30C726.63,222.04 723.40,219.88 720.63,218.50C717.87,217.13 714.30,216.00 712.71,216.00C711.11,216.00 706.36,217.75 702.15,219.89C697.94,222.04 691.80,225.02 688.50,226.53C685.20,228.04 680.92,229.59 679.00,229.98C675.50,230.69 675.50,230.69 681.50,233.49C684.80,235.02 690.73,238.58 694.68,241.39C698.63,244.19 702.59,247.74 703.49,249.26C704.65,251.22 705.56,251.79 706.59,251.21zM621.00,249.22C621.83,248.95 622.95,248.20 623.50,247.56C624.05,246.92 627.42,245.34 631.00,244.06C634.58,242.77 638.96,240.77 640.74,239.61C642.53,238.45 643.99,236.74 643.99,235.81C644.00,234.88 643.52,233.82 642.93,233.46C642.35,233.10 641.33,233.44 640.68,234.22C640.03,235.00 637.02,236.23 634.00,236.94C630.98,237.66 625.12,239.38 621.00,240.76C616.88,242.14 613.07,243.66 612.54,244.14C611.95,244.68 612.51,245.69 614.01,246.76C615.34,247.72 617.12,248.78 617.97,249.11C618.81,249.45 620.17,249.50 621.00,249.22zM652.75,234.96C653.44,234.98 654.00,234.40 654.00,233.66C654.00,232.92 655.83,231.77 658.06,231.10C660.38,230.40 661.96,229.37 661.74,228.69C661.52,228.04 659.46,227.36 657.16,227.19C654.10,226.97 652.82,227.30 652.38,228.44C652.06,229.30 650.74,230.00 649.45,230.00C648.17,230.00 646.85,230.43 646.53,230.95C646.21,231.48 647.19,232.58 648.72,233.41C650.25,234.24 652.06,234.94 652.75,234.96zM556.77,222.41C552.22,222.61 546.11,222.37 543.18,221.88C540.26,221.40 536.99,220.53 535.93,219.96C534.87,219.39 534.00,218.36 534.00,217.66C534.00,216.97 534.54,215.86 535.20,215.20C535.93,214.47 539.47,214.00 544.23,214.00C548.66,214.00 553.51,214.60 555.39,215.39C557.64,216.33 560.05,216.54 562.81,216.04C565.34,215.57 567.29,215.69 567.94,216.34C568.52,216.92 569.00,217.97 569.00,218.66C569.00,219.36 568.11,220.41 567.02,220.99C565.93,221.57 561.32,222.21 556.77,222.41zM661.94,221.35C660.60,221.62 657.92,221.39 656.00,220.85C654.08,220.31 651.38,219.73 650.00,219.56C648.62,219.39 646.04,219.20 644.25,219.13C641.35,219.01 641.00,218.69 641.00,216.05C641.00,213.50 641.50,212.96 644.66,212.08C646.67,211.53 648.80,211.40 649.41,211.79C650.01,212.18 654.50,212.72 659.38,213.00C667.19,213.44 668.45,213.77 669.76,215.75C671.17,217.89 671.08,218.07 667.82,219.43C665.93,220.22 663.29,221.08 661.94,221.35zM320.97,219.00C319.15,219.00 317.75,218.40 317.47,217.50C317.21,216.68 316.80,215.36 316.56,214.58C316.32,213.80 317.20,212.00 318.51,210.58C319.83,209.16 321.33,208.00 321.85,208.00C322.36,208.00 323.06,208.71 323.39,209.58C323.73,210.45 324.00,212.93 324.00,215.08C324.00,218.78 323.83,219.00 320.97,219.00zM647.46,204.79C646.34,204.95 645.10,204.77 644.71,204.38C644.32,203.99 644.00,200.44 644.00,196.49C644.00,189.93 643.80,189.23 641.64,188.25C640.34,187.65 639.03,186.23 638.73,185.08C638.21,183.10 638.57,183.00 646.13,183.00C652.47,183.00 654.19,183.32 654.68,184.60C655.07,185.61 654.33,186.98 652.67,188.35C650.35,190.24 650.01,191.33 649.77,197.50C649.53,203.68 649.26,204.53 647.46,204.79zM447.31,188.73C437.32,189.16 435.23,188.99 434.14,187.67C433.42,186.80 432.99,185.29 433.18,184.30C433.49,182.70 434.92,182.47 446.21,182.22C458.29,181.95 458.95,182.04 460.04,184.08C460.81,185.51 460.85,186.55 460.18,187.22C459.63,187.77 453.84,188.45 447.31,188.73zM249.00,183.79C245.43,183.71 240.25,183.50 237.50,183.32C234.75,183.15 230.60,182.76 228.29,182.45C224.17,181.90 224.09,181.82 224.68,178.69C225.01,176.94 225.70,174.68 226.21,173.69C226.94,172.26 227.81,172.02 230.30,172.56C232.03,172.95 244.94,173.54 258.98,173.88C284.50,174.50 284.50,174.50 284.81,177.66C285.04,180.08 284.65,180.97 283.18,181.44C282.11,181.78 275.45,182.48 268.37,183.00C261.29,183.52 252.57,183.87 249.00,183.79z" />

</svg>